<?xml version="1.0" encoding="UTF-8"?><svg id="Layer_2" xmlns="http://www.w3.org/2000/svg" viewBox="0 0 2234.97 4026.52"><defs><style>.cls-1{fill:#fff;}</style></defs><g id="Layer_2-2"><ellipse class="cls-1" cx="9.36" cy="17.16" rx="9.11" ry="9.39" transform="translate(-9.99 19.94) rotate(-69.56)"/><ellipse class="cls-1" cx="131.8" cy="18.8" rx="9.11" ry="9.39" transform="translate(68.16 135.74) rotate(-69.56)"/><ellipse class="cls-1" cx="259.74" cy="17.12" rx="9.11" ry="9.39" transform="translate(153 254.54) rotate(-69.56)"/><ellipse class="cls-1" cx="390.96" cy="16.7" rx="9.11" ry="9.39" transform="translate(238.79 377.22) rotate(-69.56)"/><ellipse class="cls-1" cx="518.9" cy="15.02" rx="9.11" ry="9.39" transform="translate(323.64 496.01) rotate(-69.56)"/><ellipse class="cls-1" cx="644.83" cy="14.45" rx="9.11" ry="9.39" transform="translate(406.13 613.65) rotate(-69.56)"/><ellipse class="cls-1" cx="772.78" cy="12.77" rx="9.11" ry="9.39" transform="translate(490.97 732.44) rotate(-69.56)"/><ellipse class="cls-1" cx="895.22" cy="14.41" rx="9.11" ry="9.39" transform="translate(569.12 848.25) rotate(-69.56)"/><ellipse class="cls-1" cx="1023.16" cy="12.73" rx="9.11" ry="9.39" transform="translate(653.96 967.04) rotate(-69.56)"/><ellipse class="cls-1" cx="1154.38" cy="12.31" rx="9.11" ry="9.39" transform="translate(739.76 1089.72) rotate(-69.56)"/><ellipse class="cls-1" cx="1282.32" cy="10.62" rx="9.11" ry="9.39" transform="translate(824.6 1208.52) rotate(-69.56)"/><ellipse class="cls-1" cx="1412.72" cy="11.29" rx="9.11" ry="9.39" transform="translate(908.84 1331.14) rotate(-69.56)"/><ellipse class="cls-1" cx="1535.17" cy="12.93" rx="9.11" ry="9.39" transform="translate(987 1446.95) rotate(-69.56)"/><ellipse class="cls-1" cx="1663.11" cy="11.25" rx="9.11" ry="9.39" transform="translate(1071.84 1565.74) rotate(-69.56)"/><ellipse class="cls-1" cx="1794.33" cy="10.82" rx="9.11" ry="9.39" transform="translate(1157.63 1688.42) rotate(-69.56)"/><ellipse class="cls-1" cx="1922.27" cy="9.14" rx="9.11" ry="9.39" transform="translate(1242.47 1807.22) rotate(-69.56)"/><ellipse class="cls-1" cx="2038.68" cy="9.67" rx="9.11" ry="9.39" transform="translate(1317.74 1916.64) rotate(-69.56)"/><ellipse class="cls-1" cx="2161.12" cy="11.31" rx="9.11" ry="9.39" transform="translate(1395.89 2032.45) rotate(-69.56)"/><ellipse class="cls-1" cx="13.46" cy="122.65" rx="9.11" ry="9.39" transform="translate(-106.17 92.43) rotate(-69.56)"/><ellipse class="cls-1" cx="135.91" cy="124.29" rx="9.11" ry="9.39" transform="translate(-28.02 208.24) rotate(-69.56)"/><ellipse class="cls-1" cx="263.85" cy="122.61" rx="9.11" ry="9.39" transform="translate(56.82 327.04) rotate(-69.56)"/><ellipse class="cls-1" cx="395.06" cy="122.19" rx="9.11" ry="9.39" transform="translate(142.62 449.72) rotate(-69.56)"/><ellipse class="cls-1" cx="523.01" cy="120.51" rx="9.11" ry="9.39" transform="translate(227.46 568.51) rotate(-69.56)"/><ellipse class="cls-1" cx="648.94" cy="119.94" rx="9.11" ry="9.39" transform="translate(309.95 686.15) rotate(-69.56)"/><ellipse class="cls-1" cx="776.88" cy="118.26" rx="9.11" ry="9.39" transform="translate(394.79 804.94) rotate(-69.56)"/><ellipse class="cls-1" cx="899.33" cy="119.9" rx="9.11" ry="9.39" transform="translate(472.94 920.75) rotate(-69.56)"/><ellipse class="cls-1" cx="1027.27" cy="118.22" rx="9.11" ry="9.39" transform="translate(557.79 1039.54) rotate(-69.56)"/><ellipse class="cls-1" cx="1158.48" cy="117.79" rx="9.11" ry="9.39" transform="translate(643.58 1162.22) rotate(-69.56)"/><ellipse class="cls-1" cx="1286.43" cy="116.11" rx="9.11" ry="9.39" transform="translate(728.42 1281.02) rotate(-69.56)"/><ellipse class="cls-1" cx="1416.83" cy="116.77" rx="9.11" ry="9.39" transform="translate(812.67 1403.64) rotate(-69.56)"/><ellipse class="cls-1" cx="1539.27" cy="118.42" rx="9.11" ry="9.39" transform="translate(890.82 1519.45) rotate(-69.56)"/><ellipse class="cls-1" cx="1667.22" cy="116.73" rx="9.11" ry="9.39" transform="translate(975.66 1638.24) rotate(-69.56)"/><ellipse class="cls-1" cx="1798.43" cy="116.31" rx="9.11" ry="9.39" transform="translate(1061.45 1760.92) rotate(-69.56)"/><ellipse class="cls-1" cx="1926.37" cy="114.63" rx="9.11" ry="9.39" transform="translate(1146.3 1879.72) rotate(-69.56)"/><ellipse class="cls-1" cx="2042.78" cy="115.16" rx="9.11" ry="9.39" transform="translate(1221.56 1989.14) rotate(-69.56)"/><ellipse class="cls-1" cx="2165.23" cy="116.8" rx="9.11" ry="9.39" transform="translate(1299.71 2104.95) rotate(-69.56)"/><ellipse class="cls-1" cx="17.42" cy="232.94" rx="9.11" ry="9.39" transform="translate(-206.94 167.93) rotate(-69.56)"/><ellipse class="cls-1" cx="139.87" cy="234.58" rx="9.11" ry="9.39" transform="translate(-128.79 283.74) rotate(-69.56)"/><ellipse class="cls-1" cx="267.81" cy="232.9" rx="9.11" ry="9.39" transform="translate(-43.94 402.53) rotate(-69.56)"/><ellipse class="cls-1" cx="399.03" cy="232.48" rx="9.11" ry="9.39" transform="translate(41.85 525.21) rotate(-69.56)"/><ellipse class="cls-1" cx="526.97" cy="230.8" rx="9.11" ry="9.39" transform="translate(126.69 644.01) rotate(-69.56)"/><ellipse class="cls-1" cx="652.9" cy="230.23" rx="9.11" ry="9.39" transform="translate(209.18 761.64) rotate(-69.56)"/><ellipse class="cls-1" cx="780.84" cy="228.55" rx="9.11" ry="9.39" transform="translate(294.02 880.44) rotate(-69.56)"/><ellipse class="cls-1" cx="903.29" cy="230.19" rx="9.11" ry="9.39" transform="translate(372.18 996.24) rotate(-69.56)"/><ellipse class="cls-1" cx="1031.23" cy="228.51" rx="9.11" ry="9.39" transform="translate(457.02 1115.04) rotate(-69.56)"/><ellipse class="cls-1" cx="1162.45" cy="228.09" rx="9.11" ry="9.39" transform="translate(542.81 1237.72) rotate(-69.56)"/><ellipse class="cls-1" cx="1290.39" cy="226.4" rx="9.11" ry="9.39" transform="translate(627.65 1356.51) rotate(-69.56)"/><ellipse class="cls-1" cx="1420.79" cy="227.07" rx="9.11" ry="9.39" transform="translate(711.9 1479.14) rotate(-69.56)"/><ellipse class="cls-1" cx="1543.24" cy="228.71" rx="9.11" ry="9.39" transform="translate(790.05 1594.94) rotate(-69.56)"/><ellipse class="cls-1" cx="1671.18" cy="227.03" rx="9.11" ry="9.39" transform="translate(874.89 1713.74) rotate(-69.56)"/><ellipse class="cls-1" cx="1802.4" cy="226.6" rx="9.11" ry="9.39" transform="translate(960.69 1836.42) rotate(-69.56)"/><ellipse class="cls-1" cx="1930.34" cy="224.92" rx="9.11" ry="9.39" transform="translate(1045.53 1955.21) rotate(-69.56)"/><ellipse class="cls-1" cx="2046.75" cy="225.45" rx="9.11" ry="9.39" transform="translate(1120.79 2064.64) rotate(-69.56)"/><ellipse class="cls-1" cx="2169.19" cy="227.09" rx="9.11" ry="9.39" transform="translate(1198.94 2180.45) rotate(-69.56)"/><ellipse class="cls-1" cx="17.21" cy="339.15" rx="9.11" ry="9.39" transform="translate(-306.6 236.85) rotate(-69.56)"/><ellipse class="cls-1" cx="139.66" cy="340.79" rx="9.11" ry="9.39" transform="translate(-228.45 352.66) rotate(-69.56)"/><ellipse class="cls-1" cx="267.6" cy="339.11" rx="9.11" ry="9.39" transform="translate(-143.61 471.45) rotate(-69.56)"/><ellipse class="cls-1" cx="398.82" cy="338.69" rx="9.11" ry="9.39" transform="translate(-57.81 594.13) rotate(-69.56)"/><ellipse class="cls-1" cx="526.76" cy="337" rx="9.11" ry="9.39" transform="translate(27.03 712.93) rotate(-69.56)"/><ellipse class="cls-1" cx="652.69" cy="336.44" rx="9.11" ry="9.39" transform="translate(109.52 830.56) rotate(-69.56)"/><ellipse class="cls-1" cx="780.63" cy="334.76" rx="9.11" ry="9.39" transform="translate(194.36 949.36) rotate(-69.56)"/><ellipse class="cls-1" cx="903.08" cy="336.4" rx="9.11" ry="9.39" transform="translate(272.51 1065.17) rotate(-69.56)"/><ellipse class="cls-1" cx="1031.02" cy="334.72" rx="9.11" ry="9.39" transform="translate(357.36 1183.96) rotate(-69.56)"/><ellipse class="cls-1" cx="1162.24" cy="334.29" rx="9.11" ry="9.39" transform="translate(443.15 1306.64) rotate(-69.56)"/><ellipse class="cls-1" cx="1290.18" cy="332.61" rx="9.11" ry="9.39" transform="translate(527.99 1425.43) rotate(-69.56)"/><ellipse class="cls-1" cx="1420.58" cy="333.27" rx="9.11" ry="9.39" transform="translate(612.24 1548.06) rotate(-69.56)"/><ellipse class="cls-1" cx="1543.03" cy="334.92" rx="9.11" ry="9.39" transform="translate(690.39 1663.87) rotate(-69.56)"/><ellipse class="cls-1" cx="1670.97" cy="333.23" rx="9.11" ry="9.39" transform="translate(775.23 1782.66) rotate(-69.56)"/><ellipse class="cls-1" cx="1802.18" cy="332.81" rx="9.11" ry="9.39" transform="translate(861.02 1905.34) rotate(-69.56)"/><ellipse class="cls-1" cx="1930.12" cy="331.13" rx="9.11" ry="9.39" transform="translate(945.87 2024.13) rotate(-69.56)"/><ellipse class="cls-1" cx="2046.53" cy="331.66" rx="9.11" ry="9.39" transform="translate(1021.13 2133.56) rotate(-69.56)"/><ellipse class="cls-1" cx="2168.98" cy="333.3" rx="9.11" ry="9.39" transform="translate(1099.28 2249.37) rotate(-69.56)"/><ellipse class="cls-1" cx="21.18" cy="449.44" rx="9.11" ry="9.39" transform="translate(-407.37 312.35) rotate(-69.56)"/><ellipse class="cls-1" cx="143.62" cy="451.08" rx="9.11" ry="9.39" transform="translate(-329.22 428.15) rotate(-69.56)"/><ellipse class="cls-1" cx="271.57" cy="449.4" rx="9.11" ry="9.39" transform="translate(-244.37 546.95) rotate(-69.56)"/><ellipse class="cls-1" cx="402.78" cy="448.98" rx="9.11" ry="9.39" transform="translate(-158.58 669.63) rotate(-69.56)"/><ellipse class="cls-1" cx="530.72" cy="447.3" rx="9.11" ry="9.39" transform="translate(-73.74 788.42) rotate(-69.56)"/><ellipse class="cls-1" cx="656.65" cy="446.73" rx="9.11" ry="9.39" transform="translate(8.75 906.06) rotate(-69.56)"/><ellipse class="cls-1" cx="784.6" cy="445.05" rx="9.11" ry="9.39" transform="translate(93.59 1024.85) rotate(-69.56)"/><ellipse class="cls-1" cx="907.04" cy="446.69" rx="9.11" ry="9.39" transform="translate(171.75 1140.66) rotate(-69.56)"/><ellipse class="cls-1" cx="1034.99" cy="445.01" rx="9.11" ry="9.39" transform="translate(256.59 1259.45) rotate(-69.56)"/><ellipse class="cls-1" cx="1166.2" cy="444.58" rx="9.11" ry="9.39" transform="translate(342.38 1382.14) rotate(-69.56)"/><ellipse class="cls-1" cx="1294.14" cy="442.9" rx="9.11" ry="9.39" transform="translate(427.22 1500.93) rotate(-69.56)"/><ellipse class="cls-1" cx="1424.54" cy="443.56" rx="9.11" ry="9.39" transform="translate(511.47 1623.55) rotate(-69.56)"/><ellipse class="cls-1" cx="1546.99" cy="445.21" rx="9.11" ry="9.39" transform="translate(589.62 1739.36) rotate(-69.56)"/><ellipse class="cls-1" cx="1674.93" cy="443.52" rx="9.11" ry="9.39" transform="translate(674.46 1858.15) rotate(-69.56)"/><ellipse class="cls-1" cx="1806.15" cy="443.1" rx="9.11" ry="9.39" transform="translate(760.26 1980.84) rotate(-69.56)"/><ellipse class="cls-1" cx="1934.09" cy="441.42" rx="9.11" ry="9.39" transform="translate(845.1 2099.63) rotate(-69.56)"/><ellipse class="cls-1" cx="2050.5" cy="441.95" rx="9.11" ry="9.39" transform="translate(920.36 2209.05) rotate(-69.56)"/><ellipse class="cls-1" cx="2172.94" cy="443.59" rx="9.11" ry="9.39" transform="translate(998.51 2324.86) rotate(-69.56)"/><ellipse class="cls-1" cx="24.42" cy="549.25" rx="9.11" ry="9.39" transform="translate(-498.78 380.34) rotate(-69.56)"/><ellipse class="cls-1" cx="146.86" cy="550.89" rx="9.11" ry="9.39" transform="translate(-420.63 496.14) rotate(-69.56)"/><ellipse class="cls-1" cx="274.8" cy="549.2" rx="9.11" ry="9.39" transform="translate(-335.79 614.94) rotate(-69.56)"/><ellipse class="cls-1" cx="406.02" cy="548.78" rx="9.11" ry="9.39" transform="translate(-250 737.62) rotate(-69.56)"/><ellipse class="cls-1" cx="533.96" cy="547.1" rx="9.11" ry="9.39" transform="translate(-165.15 856.41) rotate(-69.56)"/><ellipse class="cls-1" cx="659.89" cy="546.53" rx="9.11" ry="9.39" transform="translate(-82.66 974.05) rotate(-69.56)"/><ellipse class="cls-1" cx="787.84" cy="544.85" rx="9.11" ry="9.39" transform="translate(2.18 1092.84) rotate(-69.56)"/><ellipse class="cls-1" cx="910.28" cy="546.49" rx="9.11" ry="9.39" transform="translate(80.33 1208.65) rotate(-69.56)"/><ellipse class="cls-1" cx="1038.22" cy="544.81" rx="9.11" ry="9.39" transform="translate(165.17 1327.44) rotate(-69.56)"/><ellipse class="cls-1" cx="1169.44" cy="544.39" rx="9.11" ry="9.39" transform="translate(250.97 1450.12) rotate(-69.56)"/><ellipse class="cls-1" cx="1297.38" cy="542.71" rx="9.11" ry="9.39" transform="translate(335.81 1568.92) rotate(-69.56)"/><ellipse class="cls-1" cx="1427.78" cy="543.37" rx="9.11" ry="9.39" transform="translate(420.05 1691.54) rotate(-69.56)"/><ellipse class="cls-1" cx="1550.23" cy="545.01" rx="9.11" ry="9.39" transform="translate(498.21 1807.35) rotate(-69.56)"/><ellipse class="cls-1" cx="1678.17" cy="543.33" rx="9.11" ry="9.39" transform="translate(583.05 1926.14) rotate(-69.56)"/><ellipse class="cls-1" cx="1809.39" cy="542.91" rx="9.11" ry="9.39" transform="translate(668.84 2048.82) rotate(-69.56)"/><ellipse class="cls-1" cx="1937.33" cy="541.22" rx="9.11" ry="9.39" transform="translate(753.69 2167.62) rotate(-69.56)"/><ellipse class="cls-1" cx="2053.74" cy="541.75" rx="9.11" ry="9.39" transform="translate(828.95 2277.04) rotate(-69.56)"/><ellipse class="cls-1" cx="2176.18" cy="543.4" rx="9.11" ry="9.39" transform="translate(907.1 2392.85) rotate(-69.56)"/><ellipse class="cls-1" cx="28.38" cy="659.54" rx="9.11" ry="9.39" transform="translate(-599.55 455.83) rotate(-69.56)"/><ellipse class="cls-1" cx="150.83" cy="661.18" rx="9.11" ry="9.39" transform="translate(-521.4 571.64) rotate(-69.56)"/><ellipse class="cls-1" cx="278.77" cy="659.5" rx="9.11" ry="9.39" transform="translate(-436.56 690.43) rotate(-69.56)"/><ellipse class="cls-1" cx="409.99" cy="659.07" rx="9.11" ry="9.39" transform="translate(-350.76 813.11) rotate(-69.56)"/><ellipse class="cls-1" cx="537.93" cy="657.39" rx="9.11" ry="9.39" transform="translate(-265.92 931.91) rotate(-69.56)"/><ellipse class="cls-1" cx="663.86" cy="656.83" rx="9.11" ry="9.39" transform="translate(-183.43 1049.54) rotate(-69.56)"/><ellipse class="cls-1" cx="791.8" cy="655.14" rx="9.11" ry="9.39" transform="translate(-98.59 1168.34) rotate(-69.56)"/><ellipse class="cls-1" cx="914.25" cy="656.78" rx="9.11" ry="9.39" transform="translate(-20.44 1284.14) rotate(-69.56)"/><ellipse class="cls-1" cx="1042.19" cy="655.1" rx="9.11" ry="9.39" transform="translate(64.41 1402.94) rotate(-69.56)"/><ellipse class="cls-1" cx="1173.41" cy="654.68" rx="9.11" ry="9.39" transform="translate(150.2 1525.62) rotate(-69.56)"/><ellipse class="cls-1" cx="1301.35" cy="653" rx="9.11" ry="9.39" transform="translate(235.04 1644.41) rotate(-69.56)"/><ellipse class="cls-1" cx="1431.75" cy="653.66" rx="9.11" ry="9.39" transform="translate(319.29 1767.04) rotate(-69.56)"/><ellipse class="cls-1" cx="1554.2" cy="655.3" rx="9.11" ry="9.39" transform="translate(397.44 1882.84) rotate(-69.56)"/><ellipse class="cls-1" cx="1682.14" cy="653.62" rx="9.11" ry="9.39" transform="translate(482.28 2001.64) rotate(-69.56)"/><ellipse class="cls-1" cx="1813.35" cy="653.2" rx="9.11" ry="9.39" transform="translate(568.07 2124.32) rotate(-69.56)"/><ellipse class="cls-1" cx="1941.29" cy="651.51" rx="9.11" ry="9.39" transform="translate(652.92 2243.11) rotate(-69.56)"/><ellipse class="cls-1" cx="2057.7" cy="652.05" rx="9.11" ry="9.39" transform="translate(728.18 2352.54) rotate(-69.56)"/><ellipse class="cls-1" cx="2180.15" cy="653.69" rx="9.11" ry="9.39" transform="translate(806.33 2468.35) rotate(-69.56)"/><ellipse class="cls-1" cx="28.17" cy="765.74" rx="9.11" ry="9.39" transform="translate(-699.21 524.75) rotate(-69.56)"/><ellipse class="cls-1" cx="150.61" cy="767.39" rx="9.11" ry="9.39" transform="translate(-621.06 640.56) rotate(-69.56)"/><ellipse class="cls-1" cx="278.56" cy="765.7" rx="9.11" ry="9.39" transform="translate(-536.22 759.35) rotate(-69.56)"/><ellipse class="cls-1" cx="409.77" cy="765.28" rx="9.11" ry="9.39" transform="translate(-450.43 882.04) rotate(-69.56)"/><ellipse class="cls-1" cx="537.71" cy="763.6" rx="9.11" ry="9.39" transform="translate(-365.58 1000.83) rotate(-69.56)"/><ellipse class="cls-1" cx="663.65" cy="763.03" rx="9.11" ry="9.39" transform="translate(-283.09 1118.46) rotate(-69.56)"/><ellipse class="cls-1" cx="791.59" cy="761.35" rx="9.11" ry="9.39" transform="translate(-198.25 1237.26) rotate(-69.56)"/><ellipse class="cls-1" cx="914.03" cy="762.99" rx="9.11" ry="9.39" transform="translate(-120.1 1353.07) rotate(-69.56)"/><ellipse class="cls-1" cx="1041.98" cy="761.31" rx="9.11" ry="9.39" transform="translate(-35.26 1471.86) rotate(-69.56)"/><ellipse class="cls-1" cx="1173.19" cy="760.89" rx="9.11" ry="9.39" transform="translate(50.54 1594.54) rotate(-69.56)"/><ellipse class="cls-1" cx="1301.13" cy="759.21" rx="9.11" ry="9.39" transform="translate(135.38 1713.33) rotate(-69.56)"/><ellipse class="cls-1" cx="1431.53" cy="759.87" rx="9.11" ry="9.39" transform="translate(219.62 1835.96) rotate(-69.56)"/><ellipse class="cls-1" cx="1553.98" cy="761.51" rx="9.11" ry="9.39" transform="translate(297.78 1951.77) rotate(-69.56)"/><ellipse class="cls-1" cx="1681.92" cy="759.83" rx="9.11" ry="9.39" transform="translate(382.62 2070.56) rotate(-69.56)"/><ellipse class="cls-1" cx="1813.14" cy="759.41" rx="9.11" ry="9.39" transform="translate(468.41 2193.24) rotate(-69.56)"/><ellipse class="cls-1" cx="1941.08" cy="757.72" rx="9.11" ry="9.39" transform="translate(553.25 2312.03) rotate(-69.56)"/><ellipse class="cls-1" cx="2057.49" cy="758.25" rx="9.11" ry="9.39" transform="translate(628.52 2421.46) rotate(-69.56)"/><ellipse class="cls-1" cx="2179.93" cy="759.9" rx="9.11" ry="9.39" transform="translate(706.67 2537.27) rotate(-69.56)"/><ellipse class="cls-1" cx="32.13" cy="876.04" rx="9.11" ry="9.39" transform="translate(-799.98 600.25) rotate(-69.56)"/><ellipse class="cls-1" cx="154.58" cy="877.68" rx="9.11" ry="9.39" transform="translate(-721.83 716.06) rotate(-69.56)"/><ellipse class="cls-1" cx="282.52" cy="876" rx="9.11" ry="9.39" transform="translate(-636.99 834.85) rotate(-69.56)"/><ellipse class="cls-1" cx="413.74" cy="875.57" rx="9.11" ry="9.39" transform="translate(-551.19 957.53) rotate(-69.56)"/><ellipse class="cls-1" cx="541.68" cy="873.89" rx="9.11" ry="9.39" transform="translate(-466.35 1076.32) rotate(-69.56)"/><ellipse class="cls-1" cx="667.61" cy="873.32" rx="9.11" ry="9.39" transform="translate(-383.86 1193.96) rotate(-69.56)"/><ellipse class="cls-1" cx="795.55" cy="871.64" rx="9.11" ry="9.39" transform="translate(-299.02 1312.75) rotate(-69.56)"/><ellipse class="cls-1" cx="918" cy="873.28" rx="9.11" ry="9.39" transform="translate(-220.87 1428.56) rotate(-69.56)"/><ellipse class="cls-1" cx="1045.94" cy="871.6" rx="9.11" ry="9.39" transform="translate(-136.02 1547.35) rotate(-69.56)"/><ellipse class="cls-1" cx="1177.16" cy="871.18" rx="9.11" ry="9.39" transform="translate(-50.23 1670.04) rotate(-69.56)"/><ellipse class="cls-1" cx="1305.1" cy="869.5" rx="9.11" ry="9.39" transform="translate(34.61 1788.83) rotate(-69.56)"/><ellipse class="cls-1" cx="1435.5" cy="870.16" rx="9.11" ry="9.39" transform="translate(118.86 1911.45) rotate(-69.56)"/><ellipse class="cls-1" cx="1557.95" cy="871.8" rx="9.11" ry="9.39" transform="translate(197.01 2027.26) rotate(-69.56)"/><ellipse class="cls-1" cx="1685.89" cy="870.12" rx="9.11" ry="9.39" transform="translate(281.85 2146.05) rotate(-69.56)"/><ellipse class="cls-1" cx="1817.1" cy="869.7" rx="9.11" ry="9.39" transform="translate(367.64 2268.74) rotate(-69.56)"/><ellipse class="cls-1" cx="1945.05" cy="868.01" rx="9.11" ry="9.39" transform="translate(452.49 2387.53) rotate(-69.56)"/><ellipse class="cls-1" cx="2061.45" cy="868.55" rx="9.11" ry="9.39" transform="translate(527.75 2496.95) rotate(-69.56)"/><ellipse class="cls-1" cx="2183.9" cy="870.19" rx="9.11" ry="9.39" transform="translate(605.9 2612.76) rotate(-69.56)"/><ellipse class="cls-1" cx="38.26" cy="983.93" rx="9.11" ry="9.39" transform="translate(-897.1 676.21) rotate(-69.56)"/><ellipse class="cls-1" cx="160.71" cy="985.57" rx="9.11" ry="9.39" transform="translate(-818.95 792.02) rotate(-69.56)"/><ellipse class="cls-1" cx="288.65" cy="983.89" rx="9.11" ry="9.39" transform="translate(-734.1 910.81) rotate(-69.56)"/><ellipse class="cls-1" cx="419.86" cy="983.47" rx="9.11" ry="9.39" transform="translate(-648.31 1033.49) rotate(-69.56)"/><ellipse class="cls-1" cx="547.81" cy="981.79" rx="9.11" ry="9.39" transform="translate(-563.47 1152.28) rotate(-69.56)"/><ellipse class="cls-1" cx="673.74" cy="981.22" rx="9.11" ry="9.39" transform="translate(-480.98 1269.92) rotate(-69.56)"/><ellipse class="cls-1" cx="801.68" cy="979.54" rx="9.11" ry="9.39" transform="translate(-396.14 1388.71) rotate(-69.56)"/><ellipse class="cls-1" cx="924.13" cy="981.18" rx="9.11" ry="9.39" transform="translate(-317.98 1504.52) rotate(-69.56)"/><ellipse class="cls-1" cx="1052.07" cy="979.5" rx="9.11" ry="9.39" transform="translate(-233.14 1623.32) rotate(-69.56)"/><ellipse class="cls-1" cx="1183.28" cy="979.08" rx="9.11" ry="9.39" transform="translate(-147.35 1746) rotate(-69.56)"/><ellipse class="cls-1" cx="1311.23" cy="977.39" rx="9.11" ry="9.39" transform="translate(-62.5 1864.79) rotate(-69.56)"/><ellipse class="cls-1" cx="1441.63" cy="978.06" rx="9.11" ry="9.39" transform="translate(21.74 1987.41) rotate(-69.56)"/><ellipse class="cls-1" cx="1564.07" cy="979.7" rx="9.11" ry="9.39" transform="translate(99.89 2103.22) rotate(-69.56)"/><ellipse class="cls-1" cx="1692.02" cy="978.02" rx="9.11" ry="9.39" transform="translate(184.73 2222.02) rotate(-69.56)"/><ellipse class="cls-1" cx="1823.23" cy="977.59" rx="9.11" ry="9.39" transform="translate(270.53 2344.7) rotate(-69.56)"/><ellipse class="cls-1" cx="1951.17" cy="975.91" rx="9.11" ry="9.39" transform="translate(355.37 2463.49) rotate(-69.56)"/><ellipse class="cls-1" cx="2067.58" cy="976.44" rx="9.11" ry="9.39" transform="translate(430.63 2572.91) rotate(-69.56)"/><ellipse class="cls-1" cx="2190.03" cy="978.08" rx="9.11" ry="9.39" transform="translate(508.78 2688.72) rotate(-69.56)"/><ellipse class="cls-1" cx="33.39" cy="1093.61" rx="9.11" ry="9.39" transform="translate(-1001.58 738.74) rotate(-69.33)"/><ellipse class="cls-1" cx="155.81" cy="1096.49" rx="9.11" ry="9.39" transform="translate(-925.08 855.15) rotate(-69.33)"/><ellipse class="cls-1" cx="283.77" cy="1096.11" rx="9.11" ry="9.39" transform="translate(-841.94 974.61) rotate(-69.33)"/><ellipse class="cls-1" cx="414.98" cy="1097.01" rx="9.11" ry="9.39" transform="translate(-757.9 1097.96) rotate(-69.33)"/><ellipse class="cls-1" cx="542.93" cy="1096.62" rx="9.11" ry="9.39" transform="translate(-674.76 1217.42) rotate(-69.33)"/><ellipse class="cls-1" cx="668.86" cy="1097.33" rx="9.11" ry="9.39" transform="translate(-593.95 1335.7) rotate(-69.33)"/><ellipse class="cls-1" cx="796.82" cy="1096.94" rx="9.11" ry="9.39" transform="translate(-510.81 1455.16) rotate(-69.33)"/><ellipse class="cls-1" cx="919.24" cy="1099.82" rx="9.11" ry="9.39" transform="translate(-434.3 1571.56) rotate(-69.33)"/><ellipse class="cls-1" cx="1047.19" cy="1099.44" rx="9.11" ry="9.39" transform="translate(-351.16 1691.02) rotate(-69.33)"/><ellipse class="cls-1" cx="1178.41" cy="1100.34" rx="9.11" ry="9.39" transform="translate(-267.12 1814.37) rotate(-69.33)"/><ellipse class="cls-1" cx="1306.36" cy="1099.95" rx="9.11" ry="9.39" transform="translate(-183.98 1933.83) rotate(-69.33)"/><ellipse class="cls-1" cx="1436.74" cy="1101.93" rx="9.11" ry="9.39" transform="translate(-101.48 2057.11) rotate(-69.33)"/><ellipse class="cls-1" cx="1559.17" cy="1104.82" rx="9.11" ry="9.39" transform="translate(-24.98 2173.51) rotate(-69.33)"/><ellipse class="cls-1" cx="1687.12" cy="1104.43" rx="9.11" ry="9.39" transform="translate(58.16 2292.97) rotate(-69.33)"/><ellipse class="cls-1" cx="1818.33" cy="1105.33" rx="9.11" ry="9.39" transform="translate(142.2 2416.32) rotate(-69.33)"/><ellipse class="cls-1" cx="1946.29" cy="1104.94" rx="9.11" ry="9.39" transform="translate(225.34 2535.78) rotate(-69.33)"/><ellipse class="cls-1" cx="2062.68" cy="1106.65" rx="9.11" ry="9.39" transform="translate(299.05 2645.78) rotate(-69.33)"/><ellipse class="cls-1" cx="2185.11" cy="1109.53" rx="9.11" ry="9.39" transform="translate(375.55 2762.19) rotate(-69.33)"/><ellipse class="cls-1" cx="32.05" cy="1199.81" rx="9.11" ry="9.39" transform="translate(-1101.81 806.19) rotate(-69.33)"/><ellipse class="cls-1" cx="154.47" cy="1202.7" rx="9.11" ry="9.39" transform="translate(-1025.31 922.6) rotate(-69.33)"/><ellipse class="cls-1" cx="282.42" cy="1202.31" rx="9.11" ry="9.39" transform="translate(-942.17 1042.06) rotate(-69.33)"/><ellipse class="cls-1" cx="413.64" cy="1203.21" rx="9.11" ry="9.39" transform="translate(-858.13 1165.41) rotate(-69.33)"/><ellipse class="cls-1" cx="541.59" cy="1202.82" rx="9.11" ry="9.39" transform="translate(-774.99 1284.87) rotate(-69.33)"/><ellipse class="cls-1" cx="667.52" cy="1203.53" rx="9.11" ry="9.39" transform="translate(-694.18 1403.15) rotate(-69.33)"/><ellipse class="cls-1" cx="795.47" cy="1203.14" rx="9.11" ry="9.39" transform="translate(-611.04 1522.61) rotate(-69.33)"/><ellipse class="cls-1" cx="917.9" cy="1206.02" rx="9.11" ry="9.39" transform="translate(-534.53 1639.01) rotate(-69.33)"/><ellipse class="cls-1" cx="1045.85" cy="1205.64" rx="9.11" ry="9.39" transform="translate(-451.39 1758.47) rotate(-69.33)"/><ellipse class="cls-1" cx="1177.06" cy="1206.54" rx="9.11" ry="9.39" transform="translate(-367.35 1881.82) rotate(-69.33)"/><ellipse class="cls-1" cx="1305.02" cy="1206.15" rx="9.11" ry="9.39" transform="translate(-284.21 2001.28) rotate(-69.33)"/><ellipse class="cls-1" cx="1435.4" cy="1208.14" rx="9.11" ry="9.39" transform="translate(-201.71 2124.56) rotate(-69.33)"/><ellipse class="cls-1" cx="1557.83" cy="1211.02" rx="9.11" ry="9.39" transform="translate(-125.21 2240.96) rotate(-69.33)"/><ellipse class="cls-1" cx="1685.78" cy="1210.63" rx="9.11" ry="9.39" transform="translate(-42.07 2360.42) rotate(-69.33)"/><ellipse class="cls-1" cx="1816.99" cy="1211.53" rx="9.11" ry="9.39" transform="translate(41.97 2483.77) rotate(-69.33)"/><ellipse class="cls-1" cx="1944.94" cy="1211.15" rx="9.11" ry="9.39" transform="translate(125.11 2603.23) rotate(-69.33)"/><ellipse class="cls-1" cx="2061.34" cy="1212.85" rx="9.11" ry="9.39" transform="translate(198.82 2713.23) rotate(-69.33)"/><ellipse class="cls-1" cx="2183.76" cy="1215.74" rx="9.11" ry="9.39" transform="translate(275.32 2829.64) rotate(-69.33)"/><ellipse class="cls-1" cx="34.84" cy="1310.14" rx="9.11" ry="9.39" transform="translate(-1203.23 880.18) rotate(-69.33)"/><ellipse class="cls-1" cx="157.27" cy="1313.02" rx="9.11" ry="9.39" transform="translate(-1126.72 996.58) rotate(-69.33)"/><ellipse class="cls-1" cx="285.22" cy="1312.63" rx="9.11" ry="9.39" transform="translate(-1043.58 1116.04) rotate(-69.33)"/><ellipse class="cls-1" cx="416.43" cy="1313.54" rx="9.11" ry="9.39" transform="translate(-959.54 1239.39) rotate(-69.33)"/><ellipse class="cls-1" cx="544.38" cy="1313.15" rx="9.11" ry="9.39" transform="translate(-876.4 1358.86) rotate(-69.33)"/><ellipse class="cls-1" cx="670.32" cy="1313.86" rx="9.11" ry="9.39" transform="translate(-795.59 1477.13) rotate(-69.33)"/><ellipse class="cls-1" cx="798.27" cy="1313.47" rx="9.11" ry="9.39" transform="translate(-712.45 1596.6) rotate(-69.33)"/><ellipse class="cls-1" cx="920.69" cy="1316.35" rx="9.11" ry="9.39" transform="translate(-635.95 1713) rotate(-69.33)"/><ellipse class="cls-1" cx="1048.64" cy="1315.96" rx="9.11" ry="9.39" transform="translate(-552.8 1832.46) rotate(-69.33)"/><ellipse class="cls-1" cx="1179.86" cy="1316.87" rx="9.11" ry="9.39" transform="translate(-468.76 1955.81) rotate(-69.33)"/><ellipse class="cls-1" cx="1307.81" cy="1316.48" rx="9.11" ry="9.39" transform="translate(-385.62 2075.27) rotate(-69.33)"/><ellipse class="cls-1" cx="1438.2" cy="1318.46" rx="9.11" ry="9.39" transform="translate(-303.13 2198.54) rotate(-69.33)"/><ellipse class="cls-1" cx="1560.62" cy="1321.34" rx="9.11" ry="9.39" transform="translate(-226.62 2314.95) rotate(-69.33)"/><ellipse class="cls-1" cx="1688.57" cy="1320.95" rx="9.11" ry="9.39" transform="translate(-143.48 2434.41) rotate(-69.33)"/><ellipse class="cls-1" cx="1819.79" cy="1321.86" rx="9.11" ry="9.39" transform="translate(-59.44 2557.76) rotate(-69.33)"/><ellipse class="cls-1" cx="1947.74" cy="1321.47" rx="9.11" ry="9.39" transform="translate(23.7 2677.22) rotate(-69.33)"/><ellipse class="cls-1" cx="2064.13" cy="1323.18" rx="9.11" ry="9.39" transform="translate(97.4 2787.22) rotate(-69.33)"/><ellipse class="cls-1" cx="2186.56" cy="1326.06" rx="9.11" ry="9.39" transform="translate(173.91 2903.63) rotate(-69.33)"/><ellipse class="cls-1" cx="37.02" cy="1409.97" rx="9.11" ry="9.39" transform="translate(-1295.22 946.8) rotate(-69.33)"/><ellipse class="cls-1" cx="159.45" cy="1412.85" rx="9.11" ry="9.39" transform="translate(-1218.71 1063.21) rotate(-69.33)"/><ellipse class="cls-1" cx="287.4" cy="1412.46" rx="9.11" ry="9.39" transform="translate(-1135.57 1182.67) rotate(-69.33)"/><ellipse class="cls-1" cx="418.61" cy="1413.37" rx="9.11" ry="9.39" transform="translate(-1051.53 1306.02) rotate(-69.33)"/><ellipse class="cls-1" cx="546.56" cy="1412.98" rx="9.11" ry="9.39" transform="translate(-968.39 1425.48) rotate(-69.33)"/><ellipse class="cls-1" cx="672.5" cy="1413.69" rx="9.11" ry="9.39" transform="translate(-887.58 1543.76) rotate(-69.33)"/><ellipse class="cls-1" cx="800.45" cy="1413.3" rx="9.11" ry="9.39" transform="translate(-804.44 1663.22) rotate(-69.33)"/><ellipse class="cls-1" cx="922.87" cy="1416.18" rx="9.11" ry="9.39" transform="translate(-727.94 1779.62) rotate(-69.33)"/><ellipse class="cls-1" cx="1050.82" cy="1415.79" rx="9.11" ry="9.39" transform="translate(-644.8 1899.08) rotate(-69.33)"/><ellipse class="cls-1" cx="1182.04" cy="1416.7" rx="9.11" ry="9.39" transform="translate(-560.76 2022.43) rotate(-69.33)"/><ellipse class="cls-1" cx="1309.99" cy="1416.31" rx="9.11" ry="9.39" transform="translate(-477.62 2141.89) rotate(-69.33)"/><ellipse class="cls-1" cx="1440.38" cy="1418.29" rx="9.11" ry="9.39" transform="translate(-395.12 2265.17) rotate(-69.33)"/><ellipse class="cls-1" cx="1562.8" cy="1421.17" rx="9.11" ry="9.39" transform="translate(-318.61 2381.57) rotate(-69.33)"/><ellipse class="cls-1" cx="1690.75" cy="1420.79" rx="9.11" ry="9.39" transform="translate(-235.47 2501.03) rotate(-69.33)"/><ellipse class="cls-1" cx="1821.97" cy="1421.69" rx="9.11" ry="9.39" transform="translate(-151.43 2624.38) rotate(-69.33)"/><ellipse class="cls-1" cx="1949.92" cy="1421.3" rx="9.11" ry="9.39" transform="translate(-68.29 2743.84) rotate(-69.33)"/><ellipse class="cls-1" cx="2066.31" cy="1423.01" rx="9.11" ry="9.39" transform="translate(5.41 2853.85) rotate(-69.33)"/><ellipse class="cls-1" cx="2188.74" cy="1425.89" rx="9.11" ry="9.39" transform="translate(81.92 2970.25) rotate(-69.33)"/><ellipse class="cls-1" cx="39.82" cy="1520.3" rx="9.11" ry="9.39" transform="translate(-1396.63 1020.79) rotate(-69.33)"/><ellipse class="cls-1" cx="162.24" cy="1523.18" rx="9.11" ry="9.39" transform="translate(-1320.13 1137.2) rotate(-69.33)"/><ellipse class="cls-1" cx="290.19" cy="1522.79" rx="9.11" ry="9.39" transform="translate(-1236.99 1256.66) rotate(-69.33)"/><ellipse class="cls-1" cx="421.41" cy="1523.69" rx="9.11" ry="9.39" transform="translate(-1152.95 1380.01) rotate(-69.33)"/><ellipse class="cls-1" cx="549.36" cy="1523.31" rx="9.11" ry="9.39" transform="translate(-1069.8 1499.47) rotate(-69.33)"/><ellipse class="cls-1" cx="675.29" cy="1524.01" rx="9.11" ry="9.39" transform="translate(-989 1617.75) rotate(-69.33)"/><ellipse class="cls-1" cx="803.24" cy="1523.62" rx="9.11" ry="9.39" transform="translate(-905.86 1737.21) rotate(-69.33)"/><ellipse class="cls-1" cx="925.66" cy="1526.51" rx="9.11" ry="9.39" transform="translate(-829.35 1853.61) rotate(-69.33)"/><ellipse class="cls-1" cx="1053.62" cy="1526.12" rx="9.11" ry="9.39" transform="translate(-746.21 1973.07) rotate(-69.33)"/><ellipse class="cls-1" cx="1184.83" cy="1527.02" rx="9.11" ry="9.39" transform="translate(-662.17 2096.42) rotate(-69.33)"/><ellipse class="cls-1" cx="1312.78" cy="1526.63" rx="9.11" ry="9.39" transform="translate(-579.03 2215.88) rotate(-69.33)"/><ellipse class="cls-1" cx="1443.17" cy="1528.62" rx="9.11" ry="9.39" transform="translate(-496.53 2339.15) rotate(-69.33)"/><ellipse class="cls-1" cx="1565.59" cy="1531.5" rx="9.11" ry="9.39" transform="translate(-420.03 2455.56) rotate(-69.33)"/><ellipse class="cls-1" cx="1693.55" cy="1531.11" rx="9.11" ry="9.39" transform="translate(-336.88 2575.02) rotate(-69.33)"/><ellipse class="cls-1" cx="1824.76" cy="1532.02" rx="9.11" ry="9.39" transform="translate(-252.84 2698.37) rotate(-69.33)"/><ellipse class="cls-1" cx="1952.71" cy="1531.63" rx="9.11" ry="9.39" transform="translate(-169.7 2817.83) rotate(-69.33)"/><ellipse class="cls-1" cx="2069.11" cy="1533.34" rx="9.11" ry="9.39" transform="translate(-96 2927.83) rotate(-69.33)"/><ellipse class="cls-1" cx="2191.53" cy="1536.22" rx="9.11" ry="9.39" transform="translate(-19.5 3044.24) rotate(-69.33)"/><ellipse class="cls-1" cx="38.47" cy="1626.5" rx="9.11" ry="9.39" transform="translate(-1496.86 1088.24) rotate(-69.33)"/><ellipse class="cls-1" cx="160.9" cy="1629.38" rx="9.11" ry="9.39" transform="translate(-1420.36 1204.65) rotate(-69.33)"/><ellipse class="cls-1" cx="288.85" cy="1628.99" rx="9.11" ry="9.39" transform="translate(-1337.22 1324.11) rotate(-69.33)"/><ellipse class="cls-1" cx="420.06" cy="1629.89" rx="9.11" ry="9.39" transform="translate(-1253.18 1447.46) rotate(-69.33)"/><ellipse class="cls-1" cx="548.02" cy="1629.51" rx="9.11" ry="9.39" transform="translate(-1170.03 1566.92) rotate(-69.33)"/><ellipse class="cls-1" cx="673.95" cy="1630.21" rx="9.11" ry="9.39" transform="translate(-1089.23 1685.2) rotate(-69.33)"/><ellipse class="cls-1" cx="801.9" cy="1629.83" rx="9.11" ry="9.39" transform="translate(-1006.09 1804.66) rotate(-69.33)"/><ellipse class="cls-1" cx="924.32" cy="1632.71" rx="9.11" ry="9.39" transform="translate(-929.58 1921.06) rotate(-69.33)"/><ellipse class="cls-1" cx="1052.27" cy="1632.32" rx="9.11" ry="9.39" transform="translate(-846.44 2040.52) rotate(-69.33)"/><ellipse class="cls-1" cx="1183.49" cy="1633.22" rx="9.11" ry="9.39" transform="translate(-762.4 2163.87) rotate(-69.33)"/><ellipse class="cls-1" cx="1311.44" cy="1632.84" rx="9.11" ry="9.39" transform="translate(-679.26 2283.33) rotate(-69.33)"/><ellipse class="cls-1" cx="1441.83" cy="1634.82" rx="9.11" ry="9.39" transform="translate(-596.76 2406.6) rotate(-69.33)"/><ellipse class="cls-1" cx="1564.25" cy="1637.7" rx="9.11" ry="9.39" transform="translate(-520.26 2523.01) rotate(-69.33)"/><ellipse class="cls-1" cx="1692.2" cy="1637.31" rx="9.11" ry="9.39" transform="translate(-437.11 2642.47) rotate(-69.33)"/><ellipse class="cls-1" cx="1823.42" cy="1638.22" rx="9.11" ry="9.39" transform="translate(-353.08 2765.82) rotate(-69.33)"/><ellipse class="cls-1" cx="1951.37" cy="1637.83" rx="9.11" ry="9.39" transform="translate(-269.93 2885.28) rotate(-69.33)"/><ellipse class="cls-1" cx="2067.76" cy="1639.54" rx="9.11" ry="9.39" transform="translate(-196.23 2995.28) rotate(-69.33)"/><ellipse class="cls-1" cx="2190.19" cy="1642.42" rx="9.11" ry="9.39" transform="translate(-119.73 3111.69) rotate(-69.33)"/><ellipse class="cls-1" cx="41.27" cy="1736.82" rx="9.11" ry="9.39" transform="translate(-1598.27 1162.23) rotate(-69.33)"/><ellipse class="cls-1" cx="163.69" cy="1739.7" rx="9.11" ry="9.39" transform="translate(-1521.77 1278.63) rotate(-69.33)"/><ellipse class="cls-1" cx="291.64" cy="1739.31" rx="9.11" ry="9.39" transform="translate(-1438.63 1398.09) rotate(-69.33)"/><ellipse class="cls-1" cx="422.86" cy="1740.22" rx="9.11" ry="9.39" transform="translate(-1354.59 1521.44) rotate(-69.33)"/><ellipse class="cls-1" cx="550.81" cy="1739.83" rx="9.11" ry="9.39" transform="translate(-1271.45 1640.9) rotate(-69.33)"/><ellipse class="cls-1" cx="676.74" cy="1740.54" rx="9.11" ry="9.39" transform="translate(-1190.64 1759.18) rotate(-69.33)"/><ellipse class="cls-1" cx="804.69" cy="1740.15" rx="9.11" ry="9.39" transform="translate(-1107.5 1878.64) rotate(-69.33)"/><ellipse class="cls-1" cx="927.12" cy="1743.03" rx="9.11" ry="9.39" transform="translate(-1030.99 1995.05) rotate(-69.33)"/><ellipse class="cls-1" cx="1055.07" cy="1742.64" rx="9.11" ry="9.39" transform="translate(-947.85 2114.51) rotate(-69.33)"/><ellipse class="cls-1" cx="1186.28" cy="1743.55" rx="9.11" ry="9.39" transform="translate(-863.81 2237.86) rotate(-69.33)"/><ellipse class="cls-1" cx="1314.23" cy="1743.16" rx="9.11" ry="9.39" transform="translate(-780.67 2357.32) rotate(-69.33)"/><ellipse class="cls-1" cx="1444.62" cy="1745.14" rx="9.11" ry="9.39" transform="translate(-698.17 2480.59) rotate(-69.33)"/><ellipse class="cls-1" cx="1567.04" cy="1748.02" rx="9.11" ry="9.39" transform="translate(-621.67 2597) rotate(-69.33)"/><ellipse class="cls-1" cx="1695" cy="1747.64" rx="9.11" ry="9.39" transform="translate(-538.53 2716.46) rotate(-69.33)"/><ellipse class="cls-1" cx="1826.21" cy="1748.54" rx="9.11" ry="9.39" transform="translate(-454.49 2839.81) rotate(-69.33)"/><ellipse class="cls-1" cx="1954.16" cy="1748.15" rx="9.11" ry="9.39" transform="translate(-371.35 2959.27) rotate(-69.33)"/><ellipse class="cls-1" cx="2070.56" cy="1749.86" rx="9.11" ry="9.39" transform="translate(-297.64 3069.27) rotate(-69.33)"/><ellipse class="cls-1" cx="2192.98" cy="1752.74" rx="9.11" ry="9.39" transform="translate(-221.14 3185.68) rotate(-69.33)"/><ellipse class="cls-1" cx="44.25" cy="1842.35" rx="9.11" ry="9.39" transform="translate(-1695.07 1233.29) rotate(-69.33)"/><ellipse class="cls-1" cx="166.67" cy="1845.23" rx="9.11" ry="9.39" transform="translate(-1618.57 1349.69) rotate(-69.33)"/><ellipse class="cls-1" cx="294.63" cy="1844.84" rx="9.11" ry="9.39" transform="translate(-1535.43 1469.15) rotate(-69.33)"/><ellipse class="cls-1" cx="425.84" cy="1845.74" rx="9.11" ry="9.39" transform="translate(-1451.39 1592.5) rotate(-69.33)"/><ellipse class="cls-1" cx="553.79" cy="1845.36" rx="9.11" ry="9.39" transform="translate(-1368.25 1711.96) rotate(-69.33)"/><ellipse class="cls-1" cx="679.72" cy="1846.06" rx="9.11" ry="9.39" transform="translate(-1287.44 1830.24) rotate(-69.33)"/><ellipse class="cls-1" cx="807.68" cy="1845.68" rx="9.11" ry="9.39" transform="translate(-1204.3 1949.7) rotate(-69.33)"/><ellipse class="cls-1" cx="930.1" cy="1848.56" rx="9.11" ry="9.39" transform="translate(-1127.79 2066.11) rotate(-69.33)"/><ellipse class="cls-1" cx="1058.05" cy="1848.17" rx="9.11" ry="9.39" transform="translate(-1044.65 2185.57) rotate(-69.33)"/><ellipse class="cls-1" cx="1189.27" cy="1849.07" rx="9.11" ry="9.39" transform="translate(-960.61 2308.92) rotate(-69.33)"/><ellipse class="cls-1" cx="1317.22" cy="1848.69" rx="9.11" ry="9.39" transform="translate(-877.47 2428.38) rotate(-69.33)"/><ellipse class="cls-1" cx="1447.6" cy="1850.67" rx="9.11" ry="9.39" transform="translate(-794.97 2551.65) rotate(-69.33)"/><ellipse class="cls-1" cx="1570.03" cy="1853.55" rx="9.11" ry="9.39" transform="translate(-718.47 2668.06) rotate(-69.33)"/><ellipse class="cls-1" cx="1697.98" cy="1853.16" rx="9.11" ry="9.39" transform="translate(-635.33 2787.52) rotate(-69.33)"/><ellipse class="cls-1" cx="1829.19" cy="1854.07" rx="9.11" ry="9.39" transform="translate(-551.29 2910.87) rotate(-69.33)"/><ellipse class="cls-1" cx="1957.15" cy="1853.68" rx="9.11" ry="9.39" transform="translate(-468.15 3030.33) rotate(-69.33)"/><ellipse class="cls-1" cx="2073.54" cy="1855.39" rx="9.11" ry="9.39" transform="translate(-394.44 3140.33) rotate(-69.33)"/><ellipse class="cls-1" cx="2195.97" cy="1858.27" rx="9.11" ry="9.39" transform="translate(-317.94 3256.73) rotate(-69.33)"/><ellipse class="cls-1" cx="47.04" cy="1952.67" rx="9.11" ry="9.39" transform="translate(-1796.49 1307.28) rotate(-69.33)"/><ellipse class="cls-1" cx="169.47" cy="1955.55" rx="9.11" ry="9.39" transform="translate(-1719.98 1423.68) rotate(-69.33)"/><ellipse class="cls-1" cx="297.42" cy="1955.16" rx="9.11" ry="9.39" transform="translate(-1636.84 1543.14) rotate(-69.33)"/><ellipse class="cls-1" cx="428.63" cy="1956.07" rx="9.11" ry="9.39" transform="translate(-1552.8 1666.49) rotate(-69.33)"/><ellipse class="cls-1" cx="556.59" cy="1955.68" rx="9.11" ry="9.39" transform="translate(-1469.66 1785.95) rotate(-69.33)"/><ellipse class="cls-1" cx="682.52" cy="1956.39" rx="9.11" ry="9.39" transform="translate(-1388.85 1904.23) rotate(-69.33)"/><ellipse class="cls-1" cx="810.47" cy="1956" rx="9.11" ry="9.39" transform="translate(-1305.71 2023.69) rotate(-69.33)"/><ellipse class="cls-1" cx="932.89" cy="1958.88" rx="9.11" ry="9.39" transform="translate(-1229.2 2140.1) rotate(-69.33)"/><ellipse class="cls-1" cx="1060.85" cy="1958.49" rx="9.11" ry="9.39" transform="translate(-1146.06 2259.56) rotate(-69.33)"/><ellipse class="cls-1" cx="1192.06" cy="1959.4" rx="9.11" ry="9.39" transform="translate(-1062.02 2382.91) rotate(-69.33)"/><ellipse class="cls-1" cx="1320.01" cy="1959.01" rx="9.11" ry="9.39" transform="translate(-978.88 2502.37) rotate(-69.33)"/><ellipse class="cls-1" cx="1450.4" cy="1960.99" rx="9.11" ry="9.39" transform="translate(-896.39 2625.64) rotate(-69.33)"/><ellipse class="cls-1" cx="1572.82" cy="1963.87" rx="9.11" ry="9.39" transform="translate(-819.88 2742.04) rotate(-69.33)"/><ellipse class="cls-1" cx="1700.77" cy="1963.49" rx="9.11" ry="9.39" transform="translate(-736.74 2861.5) rotate(-69.33)"/><ellipse class="cls-1" cx="1831.99" cy="1964.39" rx="9.11" ry="9.39" transform="translate(-652.7 2984.85) rotate(-69.33)"/><ellipse class="cls-1" cx="1959.94" cy="1964" rx="9.11" ry="9.39" transform="translate(-569.56 3104.31) rotate(-69.33)"/><ellipse class="cls-1" cx="2076.34" cy="1965.71" rx="9.11" ry="9.39" transform="translate(-495.86 3214.32) rotate(-69.33)"/><ellipse class="cls-1" cx="2198.76" cy="1968.59" rx="9.11" ry="9.39" transform="translate(-419.35 3330.72) rotate(-69.33)"/><ellipse class="cls-1" cx="45.7" cy="2058.87" rx="9.11" ry="9.39" transform="translate(-1896.72 1374.73) rotate(-69.33)"/><ellipse class="cls-1" cx="168.13" cy="2061.75" rx="9.11" ry="9.39" transform="translate(-1820.21 1491.13) rotate(-69.33)"/><ellipse class="cls-1" cx="296.08" cy="2061.36" rx="9.11" ry="9.39" transform="translate(-1737.07 1610.59) rotate(-69.33)"/><ellipse class="cls-1" cx="427.29" cy="2062.27" rx="9.11" ry="9.39" transform="translate(-1653.03 1733.94) rotate(-69.33)"/><ellipse class="cls-1" cx="555.24" cy="2061.88" rx="9.11" ry="9.39" transform="translate(-1569.89 1853.4) rotate(-69.33)"/><ellipse class="cls-1" cx="681.18" cy="2062.59" rx="9.11" ry="9.39" transform="translate(-1489.08 1971.68) rotate(-69.33)"/><ellipse class="cls-1" cx="809.13" cy="2062.2" rx="9.11" ry="9.39" transform="translate(-1405.94 2091.14) rotate(-69.33)"/><ellipse class="cls-1" cx="931.55" cy="2065.08" rx="9.11" ry="9.39" transform="translate(-1329.43 2207.55) rotate(-69.33)"/><ellipse class="cls-1" cx="1059.5" cy="2064.69" rx="9.11" ry="9.39" transform="translate(-1246.29 2327.01) rotate(-69.33)"/><ellipse class="cls-1" cx="1190.72" cy="2065.6" rx="9.11" ry="9.39" transform="translate(-1162.25 2450.36) rotate(-69.33)"/><ellipse class="cls-1" cx="1318.67" cy="2065.21" rx="9.11" ry="9.39" transform="translate(-1079.11 2569.82) rotate(-69.33)"/><ellipse class="cls-1" cx="1449.06" cy="2067.19" rx="9.11" ry="9.39" transform="translate(-996.62 2693.09) rotate(-69.33)"/><ellipse class="cls-1" cx="1571.48" cy="2070.07" rx="9.11" ry="9.39" transform="translate(-920.11 2809.49) rotate(-69.33)"/><ellipse class="cls-1" cx="1699.43" cy="2069.69" rx="9.11" ry="9.39" transform="translate(-836.97 2928.95) rotate(-69.33)"/><ellipse class="cls-1" cx="1830.65" cy="2070.59" rx="9.11" ry="9.39" transform="translate(-752.93 3052.3) rotate(-69.33)"/><ellipse class="cls-1" cx="1958.6" cy="2070.2" rx="9.11" ry="9.39" transform="translate(-669.79 3171.76) rotate(-69.33)"/><ellipse class="cls-1" cx="2074.99" cy="2071.91" rx="9.11" ry="9.39" transform="translate(-596.09 3281.77) rotate(-69.33)"/><ellipse class="cls-1" cx="2197.42" cy="2074.79" rx="9.11" ry="9.39" transform="translate(-519.58 3398.17) rotate(-69.33)"/><ellipse class="cls-1" cx="48.5" cy="2169.2" rx="9.11" ry="9.39" transform="translate(-1998.13 1448.71) rotate(-69.33)"/><ellipse class="cls-1" cx="170.92" cy="2172.08" rx="9.11" ry="9.39" transform="translate(-1921.62 1565.12) rotate(-69.33)"/><ellipse class="cls-1" cx="298.87" cy="2171.69" rx="9.11" ry="9.39" transform="translate(-1838.48 1684.58) rotate(-69.33)"/><ellipse class="cls-1" cx="430.09" cy="2172.6" rx="9.11" ry="9.39" transform="translate(-1754.44 1807.93) rotate(-69.33)"/><ellipse class="cls-1" cx="558.04" cy="2172.21" rx="9.11" ry="9.39" transform="translate(-1671.3 1927.39) rotate(-69.33)"/><ellipse class="cls-1" cx="683.97" cy="2172.91" rx="9.11" ry="9.39" transform="translate(-1590.49 2045.67) rotate(-69.33)"/><ellipse class="cls-1" cx="811.92" cy="2172.53" rx="9.11" ry="9.39" transform="translate(-1507.35 2165.13) rotate(-69.33)"/><ellipse class="cls-1" cx="934.35" cy="2175.41" rx="9.11" ry="9.39" transform="translate(-1430.85 2281.53) rotate(-69.33)"/><ellipse class="cls-1" cx="1062.3" cy="2175.02" rx="9.11" ry="9.39" transform="translate(-1347.71 2400.99) rotate(-69.33)"/><ellipse class="cls-1" cx="1193.51" cy="2175.92" rx="9.11" ry="9.39" transform="translate(-1263.67 2524.34) rotate(-69.33)"/><ellipse class="cls-1" cx="1321.46" cy="2175.54" rx="9.11" ry="9.39" transform="translate(-1180.52 2643.8) rotate(-69.33)"/><ellipse class="cls-1" cx="1451.85" cy="2177.52" rx="9.11" ry="9.39" transform="translate(-1098.03 2767.08) rotate(-69.33)"/><ellipse class="cls-1" cx="1574.27" cy="2180.4" rx="9.11" ry="9.39" transform="translate(-1021.52 2883.48) rotate(-69.33)"/><ellipse class="cls-1" cx="1702.23" cy="2180.01" rx="9.11" ry="9.39" transform="translate(-938.38 3002.94) rotate(-69.33)"/><ellipse class="cls-1" cx="1833.44" cy="2180.92" rx="9.11" ry="9.39" transform="translate(-854.34 3126.29) rotate(-69.33)"/><ellipse class="cls-1" cx="1961.39" cy="2180.53" rx="9.11" ry="9.39" transform="translate(-771.2 3245.75) rotate(-69.33)"/><ellipse class="cls-1" cx="2077.79" cy="2182.24" rx="9.11" ry="9.39" transform="translate(-697.5 3355.76) rotate(-69.33)"/><ellipse class="cls-1" cx="2200.21" cy="2185.12" rx="9.11" ry="9.39" transform="translate(-620.99 3472.16) rotate(-69.33)"/><ellipse class="cls-1" cx="50.68" cy="2269.03" rx="9.11" ry="9.39" transform="translate(-2090.12 1515.34) rotate(-69.33)"/><ellipse class="cls-1" cx="173.1" cy="2271.91" rx="9.11" ry="9.39" transform="translate(-2013.62 1631.74) rotate(-69.33)"/><ellipse class="cls-1" cx="301.05" cy="2271.52" rx="9.11" ry="9.39" transform="translate(-1930.47 1751.2) rotate(-69.33)"/><ellipse class="cls-1" cx="432.26" cy="2272.43" rx="9.11" ry="9.39" transform="translate(-1846.43 1874.55) rotate(-69.33)"/><ellipse class="cls-1" cx="560.22" cy="2272.04" rx="9.11" ry="9.39" transform="translate(-1763.29 1994.01) rotate(-69.33)"/><ellipse class="cls-1" cx="686.15" cy="2272.75" rx="9.11" ry="9.39" transform="translate(-1682.49 2112.29) rotate(-69.33)"/><ellipse class="cls-1" cx="814.1" cy="2272.36" rx="9.11" ry="9.39" transform="translate(-1599.35 2231.75) rotate(-69.33)"/><ellipse class="cls-1" cx="936.52" cy="2275.24" rx="9.11" ry="9.39" transform="translate(-1522.84 2348.16) rotate(-69.33)"/><ellipse class="cls-1" cx="1064.48" cy="2274.85" rx="9.11" ry="9.39" transform="translate(-1439.7 2467.62) rotate(-69.33)"/><ellipse class="cls-1" cx="1195.69" cy="2275.76" rx="9.11" ry="9.39" transform="translate(-1355.66 2590.97) rotate(-69.33)"/><ellipse class="cls-1" cx="1323.64" cy="2275.37" rx="9.11" ry="9.39" transform="translate(-1272.52 2710.43) rotate(-69.33)"/><ellipse class="cls-1" cx="1454.03" cy="2277.35" rx="9.11" ry="9.39" transform="translate(-1190.02 2833.7) rotate(-69.33)"/><ellipse class="cls-1" cx="1576.45" cy="2280.23" rx="9.11" ry="9.39" transform="translate(-1113.52 2950.1) rotate(-69.33)"/><ellipse class="cls-1" cx="1704.41" cy="2279.84" rx="9.11" ry="9.39" transform="translate(-1030.37 3069.57) rotate(-69.33)"/><ellipse class="cls-1" cx="1835.62" cy="2280.75" rx="9.11" ry="9.39" transform="translate(-946.33 3192.91) rotate(-69.33)"/><ellipse class="cls-1" cx="1963.57" cy="2280.36" rx="9.11" ry="9.39" transform="translate(-863.19 3312.38) rotate(-69.33)"/><ellipse class="cls-1" cx="2079.97" cy="2282.07" rx="9.11" ry="9.39" transform="translate(-789.49 3422.38) rotate(-69.33)"/><ellipse class="cls-1" cx="2202.39" cy="2284.95" rx="9.11" ry="9.39" transform="translate(-712.99 3538.78) rotate(-69.33)"/><ellipse class="cls-1" cx="53.47" cy="2379.35" rx="9.11" ry="9.39" transform="translate(-2191.53 1589.33) rotate(-69.33)"/><ellipse class="cls-1" cx="175.89" cy="2382.23" rx="9.11" ry="9.39" transform="translate(-2115.03 1705.73) rotate(-69.33)"/><ellipse class="cls-1" cx="303.85" cy="2381.85" rx="9.11" ry="9.39" transform="translate(-2031.89 1825.19) rotate(-69.33)"/><ellipse class="cls-1" cx="435.06" cy="2382.75" rx="9.11" ry="9.39" transform="translate(-1947.85 1948.54) rotate(-69.33)"/><ellipse class="cls-1" cx="563.01" cy="2382.36" rx="9.11" ry="9.39" transform="translate(-1864.71 2068) rotate(-69.33)"/><ellipse class="cls-1" cx="688.94" cy="2383.07" rx="9.11" ry="9.39" transform="translate(-1783.9 2186.28) rotate(-69.33)"/><ellipse class="cls-1" cx="816.89" cy="2382.68" rx="9.11" ry="9.39" transform="translate(-1700.76 2305.74) rotate(-69.33)"/><ellipse class="cls-1" cx="939.32" cy="2385.56" rx="9.11" ry="9.39" transform="translate(-1624.25 2422.14) rotate(-69.33)"/><ellipse class="cls-1" cx="1067.27" cy="2385.18" rx="9.11" ry="9.39" transform="translate(-1541.11 2541.61) rotate(-69.33)"/><ellipse class="cls-1" cx="1198.48" cy="2386.08" rx="9.11" ry="9.39" transform="translate(-1457.07 2664.96) rotate(-69.33)"/><ellipse class="cls-1" cx="1326.44" cy="2385.69" rx="9.11" ry="9.39" transform="translate(-1373.93 2784.42) rotate(-69.33)"/><ellipse class="cls-1" cx="1456.82" cy="2387.68" rx="9.11" ry="9.39" transform="translate(-1291.43 2907.69) rotate(-69.33)"/><ellipse class="cls-1" cx="1579.25" cy="2390.56" rx="9.11" ry="9.39" transform="translate(-1214.93 3024.09) rotate(-69.33)"/><ellipse class="cls-1" cx="1707.2" cy="2390.17" rx="9.11" ry="9.39" transform="translate(-1131.79 3143.55) rotate(-69.33)"/><ellipse class="cls-1" cx="1838.41" cy="2391.07" rx="9.11" ry="9.39" transform="translate(-1047.75 3266.9) rotate(-69.33)"/><ellipse class="cls-1" cx="1966.37" cy="2390.69" rx="9.11" ry="9.39" transform="translate(-964.61 3386.36) rotate(-69.33)"/><ellipse class="cls-1" cx="2082.76" cy="2392.39" rx="9.11" ry="9.39" transform="translate(-890.9 3496.37) rotate(-69.33)"/><ellipse class="cls-1" cx="2205.18" cy="2395.27" rx="9.11" ry="9.39" transform="translate(-814.4 3612.77) rotate(-69.33)"/><ellipse class="cls-1" cx="52.13" cy="2485.55" rx="9.11" ry="9.39" transform="translate(-2291.76 1656.78) rotate(-69.33)"/><ellipse class="cls-1" cx="174.55" cy="2488.44" rx="9.11" ry="9.39" transform="translate(-2215.26 1773.18) rotate(-69.33)"/><ellipse class="cls-1" cx="302.5" cy="2488.05" rx="9.11" ry="9.39" transform="translate(-2132.12 1892.64) rotate(-69.33)"/><ellipse class="cls-1" cx="433.72" cy="2488.95" rx="9.11" ry="9.39" transform="translate(-2048.08 2015.99) rotate(-69.33)"/><ellipse class="cls-1" cx="561.67" cy="2488.56" rx="9.11" ry="9.39" transform="translate(-1964.94 2135.45) rotate(-69.33)"/><ellipse class="cls-1" cx="687.6" cy="2489.27" rx="9.11" ry="9.39" transform="translate(-1884.13 2253.73) rotate(-69.33)"/><ellipse class="cls-1" cx="815.55" cy="2488.88" rx="9.11" ry="9.39" transform="translate(-1800.99 2373.19) rotate(-69.33)"/><ellipse class="cls-1" cx="937.98" cy="2491.77" rx="9.11" ry="9.39" transform="translate(-1724.48 2489.59) rotate(-69.33)"/><ellipse class="cls-1" cx="1065.93" cy="2491.38" rx="9.11" ry="9.39" transform="translate(-1641.34 2609.06) rotate(-69.33)"/><ellipse class="cls-1" cx="1197.14" cy="2492.28" rx="9.11" ry="9.39" transform="translate(-1557.3 2732.41) rotate(-69.33)"/><ellipse class="cls-1" cx="1325.09" cy="2491.89" rx="9.11" ry="9.39" transform="translate(-1474.16 2851.87) rotate(-69.33)"/><ellipse class="cls-1" cx="1455.48" cy="2493.88" rx="9.11" ry="9.39" transform="translate(-1391.66 2975.14) rotate(-69.33)"/><ellipse class="cls-1" cx="1577.9" cy="2496.76" rx="9.11" ry="9.39" transform="translate(-1315.16 3091.54) rotate(-69.33)"/><ellipse class="cls-1" cx="1705.86" cy="2496.37" rx="9.11" ry="9.39" transform="translate(-1232.02 3211) rotate(-69.33)"/><ellipse class="cls-1" cx="1837.07" cy="2497.27" rx="9.11" ry="9.39" transform="translate(-1147.98 3334.35) rotate(-69.33)"/><ellipse class="cls-1" cx="1965.02" cy="2496.89" rx="9.11" ry="9.39" transform="translate(-1064.84 3453.81) rotate(-69.33)"/><ellipse class="cls-1" cx="2081.42" cy="2498.59" rx="9.11" ry="9.39" transform="translate(-991.13 3563.82) rotate(-69.33)"/><ellipse class="cls-1" cx="2203.84" cy="2501.48" rx="9.11" ry="9.39" transform="translate(-914.63 3680.22) rotate(-69.33)"/><ellipse class="cls-1" cx="54.92" cy="2595.88" rx="9.11" ry="9.39" transform="translate(-2393.18 1730.76) rotate(-69.33)"/><ellipse class="cls-1" cx="177.34" cy="2598.76" rx="9.11" ry="9.39" transform="translate(-2316.67 1847.17) rotate(-69.33)"/><ellipse class="cls-1" cx="305.3" cy="2598.37" rx="9.11" ry="9.39" transform="translate(-2233.53 1966.63) rotate(-69.33)"/><ellipse class="cls-1" cx="436.51" cy="2599.28" rx="9.11" ry="9.39" transform="translate(-2149.49 2089.98) rotate(-69.33)"/><ellipse class="cls-1" cx="564.46" cy="2598.89" rx="9.11" ry="9.39" transform="translate(-2066.35 2209.44) rotate(-69.33)"/><ellipse class="cls-1" cx="690.39" cy="2599.6" rx="9.11" ry="9.39" transform="translate(-1985.54 2327.72) rotate(-69.33)"/><ellipse class="cls-1" cx="818.35" cy="2599.21" rx="9.11" ry="9.39" transform="translate(-1902.4 2447.18) rotate(-69.33)"/><ellipse class="cls-1" cx="940.77" cy="2602.09" rx="9.11" ry="9.39" transform="translate(-1825.9 2563.58) rotate(-69.33)"/><ellipse class="cls-1" cx="1068.72" cy="2601.7" rx="9.11" ry="9.39" transform="translate(-1742.75 2683.04) rotate(-69.33)"/><ellipse class="cls-1" cx="1199.94" cy="2602.61" rx="9.11" ry="9.39" transform="translate(-1658.71 2806.39) rotate(-69.33)"/><ellipse class="cls-1" cx="1327.89" cy="2602.22" rx="9.11" ry="9.39" transform="translate(-1575.57 2925.85) rotate(-69.33)"/><ellipse class="cls-1" cx="1458.27" cy="2604.2" rx="9.11" ry="9.39" transform="translate(-1493.08 3049.13) rotate(-69.33)"/><ellipse class="cls-1" cx="1580.7" cy="2607.08" rx="9.11" ry="9.39" transform="translate(-1416.57 3165.53) rotate(-69.33)"/><ellipse class="cls-1" cx="1708.65" cy="2606.69" rx="9.11" ry="9.39" transform="translate(-1333.43 3284.99) rotate(-69.33)"/><ellipse class="cls-1" cx="1839.86" cy="2607.6" rx="9.11" ry="9.39" transform="translate(-1249.39 3408.34) rotate(-69.33)"/><ellipse class="cls-1" cx="1967.82" cy="2607.21" rx="9.11" ry="9.39" transform="translate(-1166.25 3527.8) rotate(-69.33)"/><ellipse class="cls-1" cx="2084.21" cy="2608.92" rx="9.11" ry="9.39" transform="translate(-1092.55 3637.81) rotate(-69.33)"/><ellipse class="cls-1" cx="2206.64" cy="2611.8" rx="9.11" ry="9.39" transform="translate(-1016.04 3754.21) rotate(-69.33)"/><ellipse class="cls-1" cx="53.82" cy="2715.72" rx="9.11" ry="9.39" transform="translate(-2506.01 1807.26) rotate(-69.33)"/><ellipse class="cls-1" cx="176.24" cy="2718.6" rx="9.11" ry="9.39" transform="translate(-2429.51 1923.67) rotate(-69.33)"/><ellipse class="cls-1" cx="304.2" cy="2718.21" rx="9.11" ry="9.39" transform="translate(-2346.36 2043.13) rotate(-69.33)"/><ellipse class="cls-1" cx="435.41" cy="2719.12" rx="9.11" ry="9.39" transform="translate(-2262.32 2166.48) rotate(-69.33)"/><ellipse class="cls-1" cx="563.36" cy="2718.73" rx="9.11" ry="9.39" transform="translate(-2179.18 2285.94) rotate(-69.33)"/><ellipse class="cls-1" cx="689.29" cy="2719.44" rx="9.11" ry="9.39" transform="translate(-2098.38 2404.22) rotate(-69.33)"/><ellipse class="cls-1" cx="817.25" cy="2719.05" rx="9.11" ry="9.39" transform="translate(-2015.23 2523.68) rotate(-69.33)"/><ellipse class="cls-1" cx="939.67" cy="2721.93" rx="9.11" ry="9.39" transform="translate(-1938.73 2640.08) rotate(-69.33)"/><ellipse class="cls-1" cx="1067.62" cy="2721.54" rx="9.11" ry="9.39" transform="translate(-1855.59 2759.54) rotate(-69.33)"/><ellipse class="cls-1" cx="1198.84" cy="2722.45" rx="9.11" ry="9.39" transform="translate(-1771.55 2882.89) rotate(-69.33)"/><ellipse class="cls-1" cx="1326.79" cy="2722.06" rx="9.11" ry="9.39" transform="translate(-1688.41 3002.35) rotate(-69.33)"/><ellipse class="cls-1" cx="1457.17" cy="2724.04" rx="9.11" ry="9.39" transform="translate(-1605.91 3125.63) rotate(-69.33)"/><ellipse class="cls-1" cx="1579.6" cy="2726.92" rx="9.11" ry="9.39" transform="translate(-1529.41 3242.03) rotate(-69.33)"/><ellipse class="cls-1" cx="1707.55" cy="2726.53" rx="9.11" ry="9.39" transform="translate(-1446.26 3361.49) rotate(-69.33)"/><ellipse class="cls-1" cx="1838.76" cy="2727.44" rx="9.11" ry="9.39" transform="translate(-1362.22 3484.84) rotate(-69.33)"/><ellipse class="cls-1" cx="1966.72" cy="2727.05" rx="9.11" ry="9.39" transform="translate(-1279.08 3604.3) rotate(-69.33)"/><ellipse class="cls-1" cx="2083.11" cy="2728.76" rx="9.11" ry="9.39" transform="translate(-1205.38 3714.31) rotate(-69.33)"/><ellipse class="cls-1" cx="2205.54" cy="2731.64" rx="9.11" ry="9.39" transform="translate(-1128.88 3830.71) rotate(-69.33)"/><ellipse class="cls-1" cx="56" cy="2815.55" rx="9.11" ry="9.39" transform="translate(-2598 1873.89) rotate(-69.33)"/><ellipse class="cls-1" cx="178.42" cy="2818.43" rx="9.11" ry="9.39" transform="translate(-2521.5 1990.29) rotate(-69.33)"/><ellipse class="cls-1" cx="306.38" cy="2818.04" rx="9.11" ry="9.39" transform="translate(-2438.36 2109.75) rotate(-69.33)"/><ellipse class="cls-1" cx="437.59" cy="2818.95" rx="9.11" ry="9.39" transform="translate(-2354.32 2233.1) rotate(-69.33)"/><ellipse class="cls-1" cx="565.54" cy="2818.56" rx="9.11" ry="9.39" transform="translate(-2271.18 2352.56) rotate(-69.33)"/><ellipse class="cls-1" cx="691.47" cy="2819.27" rx="9.11" ry="9.39" transform="translate(-2190.37 2470.84) rotate(-69.33)"/><ellipse class="cls-1" cx="819.43" cy="2818.88" rx="9.11" ry="9.39" transform="translate(-2107.23 2590.3) rotate(-69.33)"/><ellipse class="cls-1" cx="941.85" cy="2821.76" rx="9.11" ry="9.39" transform="translate(-2030.72 2706.71) rotate(-69.33)"/><ellipse class="cls-1" cx="1069.8" cy="2821.37" rx="9.11" ry="9.39" transform="translate(-1947.58 2826.17) rotate(-69.33)"/><ellipse class="cls-1" cx="1201.02" cy="2822.28" rx="9.11" ry="9.39" transform="translate(-1863.54 2949.52) rotate(-69.33)"/><ellipse class="cls-1" cx="1328.97" cy="2821.89" rx="9.11" ry="9.39" transform="translate(-1780.4 3068.98) rotate(-69.33)"/><ellipse class="cls-1" cx="1459.35" cy="2823.87" rx="9.11" ry="9.39" transform="translate(-1697.9 3192.25) rotate(-69.33)"/><ellipse class="cls-1" cx="1581.78" cy="2826.75" rx="9.11" ry="9.39" transform="translate(-1621.4 3308.65) rotate(-69.33)"/><ellipse class="cls-1" cx="1709.73" cy="2826.37" rx="9.11" ry="9.39" transform="translate(-1538.26 3428.11) rotate(-69.33)"/><ellipse class="cls-1" cx="1840.94" cy="2827.27" rx="9.11" ry="9.39" transform="translate(-1454.22 3551.46) rotate(-69.33)"/><ellipse class="cls-1" cx="1968.9" cy="2826.88" rx="9.11" ry="9.39" transform="translate(-1371.08 3670.92) rotate(-69.33)"/><ellipse class="cls-1" cx="2085.29" cy="2828.59" rx="9.11" ry="9.39" transform="translate(-1297.37 3780.93) rotate(-69.33)"/><ellipse class="cls-1" cx="2207.71" cy="2831.47" rx="9.11" ry="9.39" transform="translate(-1220.87 3897.33) rotate(-69.33)"/><ellipse class="cls-1" cx="58.79" cy="2925.88" rx="9.11" ry="9.39" transform="translate(-2699.42 1947.87) rotate(-69.33)"/><ellipse class="cls-1" cx="181.22" cy="2928.76" rx="9.11" ry="9.39" transform="translate(-2622.91 2064.28) rotate(-69.33)"/><ellipse class="cls-1" cx="309.17" cy="2928.37" rx="9.11" ry="9.39" transform="translate(-2539.77 2183.74) rotate(-69.33)"/><ellipse class="cls-1" cx="440.38" cy="2929.27" rx="9.11" ry="9.39" transform="translate(-2455.73 2307.09) rotate(-69.33)"/><ellipse class="cls-1" cx="568.34" cy="2928.89" rx="9.11" ry="9.39" transform="translate(-2372.59 2426.55) rotate(-69.33)"/><ellipse class="cls-1" cx="694.27" cy="2929.59" rx="9.11" ry="9.39" transform="translate(-2291.78 2544.83) rotate(-69.33)"/><ellipse class="cls-1" cx="822.22" cy="2929.21" rx="9.11" ry="9.39" transform="translate(-2208.64 2664.29) rotate(-69.33)"/><ellipse class="cls-1" cx="944.64" cy="2932.09" rx="9.11" ry="9.39" transform="translate(-2132.14 2780.69) rotate(-69.33)"/><ellipse class="cls-1" cx="1072.6" cy="2931.7" rx="9.11" ry="9.39" transform="translate(-2048.99 2900.15) rotate(-69.33)"/><ellipse class="cls-1" cx="1203.81" cy="2932.6" rx="9.11" ry="9.39" transform="translate(-1964.95 3023.5) rotate(-69.33)"/><ellipse class="cls-1" cx="1331.76" cy="2932.22" rx="9.11" ry="9.39" transform="translate(-1881.81 3142.97) rotate(-69.33)"/><ellipse class="cls-1" cx="1462.15" cy="2934.2" rx="9.11" ry="9.39" transform="translate(-1799.32 3266.24) rotate(-69.33)"/><ellipse class="cls-1" cx="1584.57" cy="2937.08" rx="9.11" ry="9.39" transform="translate(-1722.81 3382.64) rotate(-69.33)"/><ellipse class="cls-1" cx="1712.52" cy="2936.69" rx="9.11" ry="9.39" transform="translate(-1639.67 3502.1) rotate(-69.33)"/><ellipse class="cls-1" cx="1843.74" cy="2937.6" rx="9.11" ry="9.39" transform="translate(-1555.63 3625.45) rotate(-69.33)"/><ellipse class="cls-1" cx="1971.69" cy="2937.21" rx="9.11" ry="9.39" transform="translate(-1472.49 3744.91) rotate(-69.33)"/><ellipse class="cls-1" cx="2088.08" cy="2938.92" rx="9.11" ry="9.39" transform="translate(-1398.79 3854.92) rotate(-69.33)"/><ellipse class="cls-1" cx="2210.51" cy="2941.8" rx="9.11" ry="9.39" transform="translate(-1322.28 3971.32) rotate(-69.33)"/><ellipse class="cls-1" cx="57.45" cy="3032.08" rx="9.11" ry="9.39" transform="translate(-2799.65 2015.32) rotate(-69.33)"/><ellipse class="cls-1" cx="179.88" cy="3034.96" rx="9.11" ry="9.39" transform="translate(-2723.14 2131.73) rotate(-69.33)"/><ellipse class="cls-1" cx="307.83" cy="3034.57" rx="9.11" ry="9.39" transform="translate(-2640 2251.19) rotate(-69.33)"/><ellipse class="cls-1" cx="439.04" cy="3035.48" rx="9.11" ry="9.39" transform="translate(-2555.96 2374.54) rotate(-69.33)"/><ellipse class="cls-1" cx="566.99" cy="3035.09" rx="9.11" ry="9.39" transform="translate(-2472.82 2494) rotate(-69.33)"/><ellipse class="cls-1" cx="692.92" cy="3035.8" rx="9.11" ry="9.39" transform="translate(-2392.01 2612.28) rotate(-69.33)"/><ellipse class="cls-1" cx="820.88" cy="3035.41" rx="9.11" ry="9.39" transform="translate(-2308.87 2731.74) rotate(-69.33)"/><ellipse class="cls-1" cx="943.3" cy="3038.29" rx="9.11" ry="9.39" transform="translate(-2232.37 2848.14) rotate(-69.33)"/><ellipse class="cls-1" cx="1071.25" cy="3037.9" rx="9.11" ry="9.39" transform="translate(-2149.22 2967.6) rotate(-69.33)"/><ellipse class="cls-1" cx="1202.47" cy="3038.81" rx="9.11" ry="9.39" transform="translate(-2065.18 3090.95) rotate(-69.33)"/><ellipse class="cls-1" cx="1330.42" cy="3038.42" rx="9.11" ry="9.39" transform="translate(-1982.04 3210.42) rotate(-69.33)"/><ellipse class="cls-1" cx="1460.81" cy="3040.4" rx="9.11" ry="9.39" transform="translate(-1899.55 3333.69) rotate(-69.33)"/><ellipse class="cls-1" cx="1583.23" cy="3043.28" rx="9.11" ry="9.39" transform="translate(-1823.04 3450.09) rotate(-69.33)"/><ellipse class="cls-1" cx="1711.18" cy="3042.89" rx="9.11" ry="9.39" transform="translate(-1739.9 3569.55) rotate(-69.33)"/><ellipse class="cls-1" cx="1842.39" cy="3043.8" rx="9.11" ry="9.39" transform="translate(-1655.86 3692.9) rotate(-69.33)"/><ellipse class="cls-1" cx="1970.35" cy="3043.41" rx="9.11" ry="9.39" transform="translate(-1572.72 3812.36) rotate(-69.33)"/><ellipse class="cls-1" cx="2086.74" cy="3045.12" rx="9.11" ry="9.39" transform="translate(-1499.02 3922.37) rotate(-69.33)"/><ellipse class="cls-1" cx="2209.17" cy="3048" rx="9.11" ry="9.39" transform="translate(-1422.51 4038.77) rotate(-69.33)"/><ellipse class="cls-1" cx="60.25" cy="3142.4" rx="9.11" ry="9.39" transform="translate(-2901.06 2089.31) rotate(-69.33)"/><ellipse class="cls-1" cx="182.67" cy="3145.28" rx="9.11" ry="9.39" transform="translate(-2824.55 2205.72) rotate(-69.33)"/><ellipse class="cls-1" cx="310.62" cy="3144.89" rx="9.11" ry="9.39" transform="translate(-2741.41 2325.18) rotate(-69.33)"/><ellipse class="cls-1" cx="441.83" cy="3145.8" rx="9.11" ry="9.39" transform="translate(-2657.37 2448.53) rotate(-69.33)"/><ellipse class="cls-1" cx="569.79" cy="3145.41" rx="9.11" ry="9.39" transform="translate(-2574.23 2567.99) rotate(-69.33)"/><ellipse class="cls-1" cx="695.72" cy="3146.12" rx="9.11" ry="9.39" transform="translate(-2493.42 2686.27) rotate(-69.33)"/><ellipse class="cls-1" cx="823.67" cy="3145.73" rx="9.11" ry="9.39" transform="translate(-2410.28 2805.73) rotate(-69.33)"/><ellipse class="cls-1" cx="946.09" cy="3148.61" rx="9.11" ry="9.39" transform="translate(-2333.78 2922.13) rotate(-69.33)"/><ellipse class="cls-1" cx="1074.05" cy="3148.22" rx="9.11" ry="9.39" transform="translate(-2250.64 3041.59) rotate(-69.33)"/><ellipse class="cls-1" cx="1205.26" cy="3149.13" rx="9.11" ry="9.39" transform="translate(-2166.6 3164.94) rotate(-69.33)"/><ellipse class="cls-1" cx="1333.21" cy="3148.74" rx="9.11" ry="9.39" transform="translate(-2083.46 3284.4) rotate(-69.33)"/><ellipse class="cls-1" cx="1463.6" cy="3150.72" rx="9.11" ry="9.39" transform="translate(-2000.96 3407.67) rotate(-69.33)"/><ellipse class="cls-1" cx="1586.02" cy="3153.61" rx="9.11" ry="9.39" transform="translate(-1924.45 3524.08) rotate(-69.33)"/><ellipse class="cls-1" cx="1713.98" cy="3153.22" rx="9.11" ry="9.39" transform="translate(-1841.31 3643.54) rotate(-69.33)"/><ellipse class="cls-1" cx="1845.19" cy="3154.12" rx="9.11" ry="9.39" transform="translate(-1757.27 3766.89) rotate(-69.33)"/><ellipse class="cls-1" cx="1973.14" cy="3153.73" rx="9.11" ry="9.39" transform="translate(-1674.13 3886.35) rotate(-69.33)"/><ellipse class="cls-1" cx="2089.54" cy="3155.44" rx="9.11" ry="9.39" transform="translate(-1600.43 3996.35) rotate(-69.33)"/><ellipse class="cls-1" cx="2211.96" cy="3158.32" rx="9.11" ry="9.39" transform="translate(-1523.92 4112.76) rotate(-69.33)"/><ellipse class="cls-1" cx="63.23" cy="3247.93" rx="9.11" ry="9.39" transform="translate(-2997.86 2160.37) rotate(-69.33)"/><ellipse class="cls-1" cx="185.65" cy="3250.81" rx="9.11" ry="9.39" transform="translate(-2921.35 2276.78) rotate(-69.33)"/><ellipse class="cls-1" cx="313.6" cy="3250.42" rx="9.11" ry="9.39" transform="translate(-2838.21 2396.24) rotate(-69.33)"/><ellipse class="cls-1" cx="444.82" cy="3251.33" rx="9.11" ry="9.39" transform="translate(-2754.17 2519.59) rotate(-69.33)"/><ellipse class="cls-1" cx="572.77" cy="3250.94" rx="9.11" ry="9.39" transform="translate(-2671.03 2639.05) rotate(-69.33)"/><ellipse class="cls-1" cx="698.7" cy="3251.64" rx="9.11" ry="9.39" transform="translate(-2590.22 2757.33) rotate(-69.33)"/><ellipse class="cls-1" cx="826.65" cy="3251.26" rx="9.11" ry="9.39" transform="translate(-2507.08 2876.79) rotate(-69.33)"/><ellipse class="cls-1" cx="949.08" cy="3254.14" rx="9.11" ry="9.39" transform="translate(-2430.58 2993.19) rotate(-69.33)"/><ellipse class="cls-1" cx="1077.03" cy="3253.75" rx="9.11" ry="9.39" transform="translate(-2347.44 3112.65) rotate(-69.33)"/><ellipse class="cls-1" cx="1208.24" cy="3254.65" rx="9.11" ry="9.39" transform="translate(-2263.4 3236) rotate(-69.33)"/><ellipse class="cls-1" cx="1336.2" cy="3254.27" rx="9.11" ry="9.39" transform="translate(-2180.25 3355.46) rotate(-69.33)"/><ellipse class="cls-1" cx="1466.58" cy="3256.25" rx="9.11" ry="9.39" transform="translate(-2097.76 3478.73) rotate(-69.33)"/><ellipse class="cls-1" cx="1589.01" cy="3259.13" rx="9.11" ry="9.39" transform="translate(-2021.25 3595.14) rotate(-69.33)"/><ellipse class="cls-1" cx="1716.96" cy="3258.74" rx="9.11" ry="9.39" transform="translate(-1938.11 3714.6) rotate(-69.33)"/><ellipse class="cls-1" cx="1848.17" cy="3259.65" rx="9.11" ry="9.39" transform="translate(-1854.07 3837.95) rotate(-69.33)"/><ellipse class="cls-1" cx="1976.12" cy="3259.26" rx="9.11" ry="9.39" transform="translate(-1770.93 3957.41) rotate(-69.33)"/><ellipse class="cls-1" cx="2092.52" cy="3260.97" rx="9.11" ry="9.39" transform="translate(-1697.23 4067.41) rotate(-69.33)"/><ellipse class="cls-1" cx="2214.94" cy="3263.85" rx="9.11" ry="9.39" transform="translate(-1620.72 4183.82) rotate(-69.33)"/><ellipse class="cls-1" cx="66.02" cy="3358.25" rx="9.11" ry="9.39" transform="translate(-3099.27 2234.36) rotate(-69.33)"/><ellipse class="cls-1" cx="188.45" cy="3361.13" rx="9.11" ry="9.39" transform="translate(-3022.77 2350.76) rotate(-69.33)"/><ellipse class="cls-1" cx="316.4" cy="3360.74" rx="9.11" ry="9.39" transform="translate(-2939.62 2470.22) rotate(-69.33)"/><ellipse class="cls-1" cx="447.61" cy="3361.65" rx="9.11" ry="9.39" transform="translate(-2855.58 2593.57) rotate(-69.33)"/><ellipse class="cls-1" cx="575.56" cy="3361.26" rx="9.11" ry="9.39" transform="translate(-2772.44 2713.03) rotate(-69.33)"/><ellipse class="cls-1" cx="701.5" cy="3361.97" rx="9.11" ry="9.39" transform="translate(-2691.64 2831.31) rotate(-69.33)"/><ellipse class="cls-1" cx="829.45" cy="3361.58" rx="9.11" ry="9.39" transform="translate(-2608.49 2950.77) rotate(-69.33)"/><ellipse class="cls-1" cx="951.87" cy="3364.46" rx="9.11" ry="9.39" transform="translate(-2531.99 3067.18) rotate(-69.33)"/><ellipse class="cls-1" cx="1079.82" cy="3364.07" rx="9.11" ry="9.39" transform="translate(-2448.85 3186.64) rotate(-69.33)"/><ellipse class="cls-1" cx="1211.04" cy="3364.98" rx="9.11" ry="9.39" transform="translate(-2364.81 3309.99) rotate(-69.33)"/><ellipse class="cls-1" cx="1338.99" cy="3364.59" rx="9.11" ry="9.39" transform="translate(-2281.67 3429.45) rotate(-69.33)"/><ellipse class="cls-1" cx="1469.38" cy="3366.57" rx="9.11" ry="9.39" transform="translate(-2199.17 3552.72) rotate(-69.33)"/><ellipse class="cls-1" cx="1591.8" cy="3369.45" rx="9.11" ry="9.39" transform="translate(-2122.66 3669.13) rotate(-69.33)"/><ellipse class="cls-1" cx="1719.75" cy="3369.07" rx="9.11" ry="9.39" transform="translate(-2039.52 3788.59) rotate(-69.33)"/><ellipse class="cls-1" cx="1850.97" cy="3369.97" rx="9.11" ry="9.39" transform="translate(-1955.48 3911.94) rotate(-69.33)"/><ellipse class="cls-1" cx="1978.92" cy="3369.58" rx="9.11" ry="9.39" transform="translate(-1872.34 4031.4) rotate(-69.33)"/><ellipse class="cls-1" cx="2095.31" cy="3371.29" rx="9.11" ry="9.39" transform="translate(-1798.64 4141.4) rotate(-69.33)"/><ellipse class="cls-1" cx="2217.74" cy="3374.17" rx="9.11" ry="9.39" transform="translate(-1722.14 4257.81) rotate(-69.33)"/><ellipse class="cls-1" cx="64.68" cy="3464.45" rx="9.11" ry="9.39" transform="translate(-3199.5 2301.81) rotate(-69.33)"/><ellipse class="cls-1" cx="187.1" cy="3467.33" rx="9.11" ry="9.39" transform="translate(-3123 2418.21) rotate(-69.33)"/><ellipse class="cls-1" cx="315.06" cy="3466.95" rx="9.11" ry="9.39" transform="translate(-3039.85 2537.67) rotate(-69.33)"/><ellipse class="cls-1" cx="446.27" cy="3467.85" rx="9.11" ry="9.39" transform="translate(-2955.81 2661.02) rotate(-69.33)"/><ellipse class="cls-1" cx="574.22" cy="3467.46" rx="9.11" ry="9.39" transform="translate(-2872.67 2780.48) rotate(-69.33)"/><ellipse class="cls-1" cx="700.15" cy="3468.17" rx="9.11" ry="9.39" transform="translate(-2791.87 2898.76) rotate(-69.33)"/><ellipse class="cls-1" cx="828.11" cy="3467.78" rx="9.11" ry="9.39" transform="translate(-2708.72 3018.22) rotate(-69.33)"/><ellipse class="cls-1" cx="950.53" cy="3470.66" rx="9.11" ry="9.39" transform="translate(-2632.22 3134.63) rotate(-69.33)"/><ellipse class="cls-1" cx="1078.48" cy="3470.27" rx="9.11" ry="9.39" transform="translate(-2549.08 3254.09) rotate(-69.33)"/><ellipse class="cls-1" cx="1209.7" cy="3471.18" rx="9.11" ry="9.39" transform="translate(-2465.04 3377.44) rotate(-69.33)"/><ellipse class="cls-1" cx="1337.65" cy="3470.79" rx="9.11" ry="9.39" transform="translate(-2381.9 3496.9) rotate(-69.33)"/><ellipse class="cls-1" cx="1468.03" cy="3472.77" rx="9.11" ry="9.39" transform="translate(-2299.4 3620.17) rotate(-69.33)"/><ellipse class="cls-1" cx="1590.46" cy="3475.66" rx="9.11" ry="9.39" transform="translate(-2222.89 3736.58) rotate(-69.33)"/><ellipse class="cls-1" cx="1718.41" cy="3475.27" rx="9.11" ry="9.39" transform="translate(-2139.75 3856.04) rotate(-69.33)"/><ellipse class="cls-1" cx="1849.62" cy="3476.17" rx="9.11" ry="9.39" transform="translate(-2055.71 3979.39) rotate(-69.33)"/><ellipse class="cls-1" cx="1977.58" cy="3475.78" rx="9.11" ry="9.39" transform="translate(-1972.57 4098.85) rotate(-69.33)"/><ellipse class="cls-1" cx="2093.97" cy="3477.49" rx="9.11" ry="9.39" transform="translate(-1898.87 4208.85) rotate(-69.33)"/><ellipse class="cls-1" cx="2216.4" cy="3480.37" rx="9.11" ry="9.39" transform="translate(-1822.37 4325.26) rotate(-69.33)"/><ellipse class="cls-1" cx="67.47" cy="3574.78" rx="9.11" ry="9.39" transform="translate(-3300.91 2375.8) rotate(-69.33)"/><ellipse class="cls-1" cx="189.9" cy="3577.66" rx="9.11" ry="9.39" transform="translate(-3224.41 2492.2) rotate(-69.33)"/><ellipse class="cls-1" cx="317.85" cy="3577.27" rx="9.11" ry="9.39" transform="translate(-3141.27 2611.66) rotate(-69.33)"/><ellipse class="cls-1" cx="449.06" cy="3578.18" rx="9.11" ry="9.39" transform="translate(-3057.23 2735.01) rotate(-69.33)"/><ellipse class="cls-1" cx="577.02" cy="3577.79" rx="9.11" ry="9.39" transform="translate(-2974.09 2854.47) rotate(-69.33)"/><ellipse class="cls-1" cx="702.95" cy="3578.5" rx="9.11" ry="9.39" transform="translate(-2893.28 2972.75) rotate(-69.33)"/><ellipse class="cls-1" cx="830.9" cy="3578.11" rx="9.11" ry="9.39" transform="translate(-2810.14 3092.21) rotate(-69.33)"/><ellipse class="cls-1" cx="953.32" cy="3580.99" rx="9.11" ry="9.39" transform="translate(-2733.63 3208.62) rotate(-69.33)"/><ellipse class="cls-1" cx="1081.28" cy="3580.6" rx="9.11" ry="9.39" transform="translate(-2650.49 3328.08) rotate(-69.33)"/><ellipse class="cls-1" cx="1212.49" cy="3581.51" rx="9.11" ry="9.39" transform="translate(-2566.45 3451.43) rotate(-69.33)"/><ellipse class="cls-1" cx="1340.44" cy="3581.12" rx="9.11" ry="9.39" transform="translate(-2483.31 3570.89) rotate(-69.33)"/><ellipse class="cls-1" cx="1470.83" cy="3583.1" rx="9.11" ry="9.39" transform="translate(-2400.81 3694.16) rotate(-69.33)"/><ellipse class="cls-1" cx="1593.25" cy="3585.98" rx="9.11" ry="9.39" transform="translate(-2324.31 3810.56) rotate(-69.33)"/><ellipse class="cls-1" cx="1721.2" cy="3585.59" rx="9.11" ry="9.39" transform="translate(-2241.17 3930.02) rotate(-69.33)"/><ellipse class="cls-1" cx="1852.42" cy="3586.5" rx="9.11" ry="9.39" transform="translate(-2157.13 4053.37) rotate(-69.33)"/><ellipse class="cls-1" cx="1980.37" cy="3586.11" rx="9.11" ry="9.39" transform="translate(-2073.99 4172.83) rotate(-69.33)"/><ellipse class="cls-1" cx="2096.77" cy="3587.82" rx="9.11" ry="9.39" transform="translate(-2000.28 4282.84) rotate(-69.33)"/><ellipse class="cls-1" cx="2219.19" cy="3590.7" rx="9.11" ry="9.39" transform="translate(-1923.78 4399.24) rotate(-69.33)"/><ellipse class="cls-1" cx="69.65" cy="3674.61" rx="9.11" ry="9.39" transform="translate(-3392.91 2442.42) rotate(-69.33)"/><ellipse class="cls-1" cx="192.08" cy="3677.49" rx="9.11" ry="9.39" transform="translate(-3316.4 2558.82) rotate(-69.33)"/><ellipse class="cls-1" cx="320.03" cy="3677.1" rx="9.11" ry="9.39" transform="translate(-3233.26 2678.29) rotate(-69.33)"/><ellipse class="cls-1" cx="451.24" cy="3678.01" rx="9.11" ry="9.39" transform="translate(-3149.22 2801.63) rotate(-69.33)"/><ellipse class="cls-1" cx="579.2" cy="3677.62" rx="9.11" ry="9.39" transform="translate(-3066.08 2921.1) rotate(-69.33)"/><ellipse class="cls-1" cx="705.13" cy="3678.33" rx="9.11" ry="9.39" transform="translate(-2985.27 3039.38) rotate(-69.33)"/><ellipse class="cls-1" cx="833.08" cy="3677.94" rx="9.11" ry="9.39" transform="translate(-2902.13 3158.84) rotate(-69.33)"/><ellipse class="cls-1" cx="955.5" cy="3680.82" rx="9.11" ry="9.39" transform="translate(-2825.62 3275.24) rotate(-69.33)"/><ellipse class="cls-1" cx="1083.46" cy="3680.43" rx="9.11" ry="9.39" transform="translate(-2742.48 3394.7) rotate(-69.33)"/><ellipse class="cls-1" cx="1214.67" cy="3681.34" rx="9.11" ry="9.39" transform="translate(-2658.44 3518.05) rotate(-69.33)"/><ellipse class="cls-1" cx="1342.62" cy="3680.95" rx="9.11" ry="9.39" transform="translate(-2575.3 3637.51) rotate(-69.33)"/><ellipse class="cls-1" cx="1473.01" cy="3682.93" rx="9.11" ry="9.39" transform="translate(-2492.81 3760.78) rotate(-69.33)"/><ellipse class="cls-1" cx="1595.43" cy="3685.81" rx="9.11" ry="9.39" transform="translate(-2416.3 3877.19) rotate(-69.33)"/><ellipse class="cls-1" cx="1723.38" cy="3685.42" rx="9.11" ry="9.39" transform="translate(-2333.16 3996.65) rotate(-69.33)"/><ellipse class="cls-1" cx="1854.6" cy="3686.33" rx="9.11" ry="9.39" transform="translate(-2249.12 4120) rotate(-69.33)"/><ellipse class="cls-1" cx="1982.55" cy="3685.94" rx="9.11" ry="9.39" transform="translate(-2165.98 4239.46) rotate(-69.33)"/><ellipse class="cls-1" cx="2098.94" cy="3687.65" rx="9.11" ry="9.39" transform="translate(-2092.28 4349.46) rotate(-69.33)"/><ellipse class="cls-1" cx="2221.37" cy="3690.53" rx="9.11" ry="9.39" transform="translate(-2015.77 4465.87) rotate(-69.33)"/><ellipse class="cls-1" cx="72.45" cy="3784.93" rx="9.11" ry="9.39" transform="translate(-3494.32 2516.41) rotate(-69.33)"/><ellipse class="cls-1" cx="194.87" cy="3787.82" rx="9.11" ry="9.39" transform="translate(-3417.81 2632.81) rotate(-69.33)"/><ellipse class="cls-1" cx="322.82" cy="3787.43" rx="9.11" ry="9.39" transform="translate(-3334.67 2752.27) rotate(-69.33)"/><ellipse class="cls-1" cx="454.04" cy="3788.33" rx="9.11" ry="9.39" transform="translate(-3250.63 2875.62) rotate(-69.33)"/><ellipse class="cls-1" cx="581.99" cy="3787.94" rx="9.11" ry="9.39" transform="translate(-3167.49 2995.08) rotate(-69.33)"/><ellipse class="cls-1" cx="707.92" cy="3788.65" rx="9.11" ry="9.39" transform="translate(-3086.68 3113.36) rotate(-69.33)"/><ellipse class="cls-1" cx="835.87" cy="3788.26" rx="9.11" ry="9.39" transform="translate(-3003.54 3232.82) rotate(-69.33)"/><ellipse class="cls-1" cx="958.3" cy="3791.15" rx="9.11" ry="9.39" transform="translate(-2927.04 3349.23) rotate(-69.33)"/><ellipse class="cls-1" cx="1086.25" cy="3790.76" rx="9.11" ry="9.39" transform="translate(-2843.9 3468.69) rotate(-69.33)"/><ellipse class="cls-1" cx="1217.46" cy="3791.66" rx="9.11" ry="9.39" transform="translate(-2759.86 3592.04) rotate(-69.33)"/><ellipse class="cls-1" cx="1345.42" cy="3791.27" rx="9.11" ry="9.39" transform="translate(-2676.72 3711.5) rotate(-69.33)"/><ellipse class="cls-1" cx="1475.8" cy="3793.26" rx="9.11" ry="9.39" transform="translate(-2594.22 3834.77) rotate(-69.33)"/><ellipse class="cls-1" cx="1598.23" cy="3796.14" rx="9.11" ry="9.39" transform="translate(-2517.71 3951.17) rotate(-69.33)"/><ellipse class="cls-1" cx="1726.18" cy="3795.75" rx="9.11" ry="9.39" transform="translate(-2434.57 4070.64) rotate(-69.33)"/><ellipse class="cls-1" cx="1857.39" cy="3796.65" rx="9.11" ry="9.39" transform="translate(-2350.53 4193.99) rotate(-69.33)"/><ellipse class="cls-1" cx="1985.34" cy="3796.27" rx="9.11" ry="9.39" transform="translate(-2267.39 4313.45) rotate(-69.33)"/><ellipse class="cls-1" cx="2101.74" cy="3797.97" rx="9.11" ry="9.39" transform="translate(-2193.69 4423.45) rotate(-69.33)"/><ellipse class="cls-1" cx="2224.16" cy="3800.86" rx="9.11" ry="9.39" transform="translate(-2117.18 4539.85) rotate(-69.33)"/><ellipse class="cls-1" cx="71.11" cy="3891.14" rx="9.11" ry="9.39" transform="translate(-3594.55 2583.86) rotate(-69.33)"/><ellipse class="cls-1" cx="193.53" cy="3894.02" rx="9.11" ry="9.39" transform="translate(-3518.04 2700.26) rotate(-69.33)"/><ellipse class="cls-1" cx="321.48" cy="3893.63" rx="9.11" ry="9.39" transform="translate(-3434.9 2819.72) rotate(-69.33)"/><ellipse class="cls-1" cx="452.69" cy="3894.53" rx="9.11" ry="9.39" transform="translate(-3350.86 2943.07) rotate(-69.33)"/><ellipse class="cls-1" cx="580.65" cy="3894.14" rx="9.11" ry="9.39" transform="translate(-3267.72 3062.53) rotate(-69.33)"/><ellipse class="cls-1" cx="706.58" cy="3894.85" rx="9.11" ry="9.39" transform="translate(-3186.91 3180.81) rotate(-69.33)"/><ellipse class="cls-1" cx="834.53" cy="3894.46" rx="9.11" ry="9.39" transform="translate(-3103.77 3300.27) rotate(-69.33)"/><ellipse class="cls-1" cx="956.95" cy="3897.35" rx="9.11" ry="9.39" transform="translate(-3027.27 3416.68) rotate(-69.33)"/><ellipse class="cls-1" cx="1084.91" cy="3896.96" rx="9.11" ry="9.39" transform="translate(-2944.13 3536.14) rotate(-69.33)"/><ellipse class="cls-1" cx="1216.12" cy="3897.86" rx="9.11" ry="9.39" transform="translate(-2860.09 3659.49) rotate(-69.33)"/><ellipse class="cls-1" cx="1344.07" cy="3897.47" rx="9.11" ry="9.39" transform="translate(-2776.95 3778.95) rotate(-69.33)"/><ellipse class="cls-1" cx="1474.46" cy="3899.46" rx="9.11" ry="9.39" transform="translate(-2694.45 3902.22) rotate(-69.33)"/><ellipse class="cls-1" cx="1596.88" cy="3902.34" rx="9.11" ry="9.39" transform="translate(-2617.94 4018.62) rotate(-69.33)"/><ellipse class="cls-1" cx="1724.84" cy="3901.95" rx="9.11" ry="9.39" transform="translate(-2534.8 4138.09) rotate(-69.33)"/><ellipse class="cls-1" cx="1856.05" cy="3902.86" rx="9.11" ry="9.39" transform="translate(-2450.76 4261.43) rotate(-69.33)"/><ellipse class="cls-1" cx="1984" cy="3902.47" rx="9.11" ry="9.39" transform="translate(-2367.62 4380.9) rotate(-69.33)"/><ellipse class="cls-1" cx="2100.4" cy="3904.17" rx="9.11" ry="9.39" transform="translate(-2293.92 4490.9) rotate(-69.33)"/><ellipse class="cls-1" cx="2222.82" cy="3907.06" rx="9.11" ry="9.39" transform="translate(-2217.41 4607.3) rotate(-69.33)"/><ellipse class="cls-1" cx="73.9" cy="4001.46" rx="9.11" ry="9.39" transform="translate(-3695.96 2657.85) rotate(-69.33)"/><ellipse class="cls-1" cx="196.32" cy="4004.34" rx="9.11" ry="9.39" transform="translate(-3619.46 2774.25) rotate(-69.33)"/><ellipse class="cls-1" cx="324.28" cy="4003.95" rx="9.11" ry="9.39" transform="translate(-3536.31 2893.71) rotate(-69.33)"/><ellipse class="cls-1" cx="455.49" cy="4004.86" rx="9.11" ry="9.39" transform="translate(-3452.27 3017.06) rotate(-69.33)"/><ellipse class="cls-1" cx="583.44" cy="4004.47" rx="9.11" ry="9.39" transform="translate(-3369.13 3136.52) rotate(-69.33)"/><ellipse class="cls-1" cx="709.37" cy="4005.18" rx="9.11" ry="9.39" transform="translate(-3288.33 3254.8) rotate(-69.33)"/><ellipse class="cls-1" cx="837.32" cy="4004.79" rx="9.11" ry="9.39" transform="translate(-3205.19 3374.26) rotate(-69.33)"/><ellipse class="cls-1" cx="959.75" cy="4007.67" rx="9.11" ry="9.39" transform="translate(-3128.68 3490.67) rotate(-69.33)"/><ellipse class="cls-1" cx="1087.7" cy="4007.28" rx="9.11" ry="9.39" transform="translate(-3045.54 3610.13) rotate(-69.33)"/><ellipse class="cls-1" cx="1218.91" cy="4008.19" rx="9.11" ry="9.39" transform="translate(-2961.5 3733.48) rotate(-69.33)"/><ellipse class="cls-1" cx="1346.87" cy="4007.8" rx="9.11" ry="9.39" transform="translate(-2878.36 3852.94) rotate(-69.33)"/><ellipse class="cls-1" cx="1477.25" cy="4009.78" rx="9.11" ry="9.39" transform="translate(-2795.86 3976.21) rotate(-69.33)"/><ellipse class="cls-1" cx="1599.68" cy="4012.66" rx="9.11" ry="9.39" transform="translate(-2719.36 4092.61) rotate(-69.33)"/><ellipse class="cls-1" cx="1727.63" cy="4012.27" rx="9.11" ry="9.39" transform="translate(-2636.21 4212.07) rotate(-69.33)"/><ellipse class="cls-1" cx="1858.84" cy="4013.18" rx="9.11" ry="9.39" transform="translate(-2552.17 4335.42) rotate(-69.33)"/><ellipse class="cls-1" cx="1986.79" cy="4012.79" rx="9.11" ry="9.39" transform="translate(-2469.03 4454.88) rotate(-69.33)"/><ellipse class="cls-1" cx="2103.19" cy="4014.5" rx="9.11" ry="9.39" transform="translate(-2395.33 4564.89) rotate(-69.33)"/><ellipse class="cls-1" cx="2225.61" cy="4017.38" rx="9.11" ry="9.39" transform="translate(-2318.83 4681.29) rotate(-69.33)"/></g></svg>