<?xml version="1.0" encoding="UTF-8"?><svg id="Layer_2" xmlns="http://www.w3.org/2000/svg" viewBox="0 0 2081.33 3790.82"><defs><style>.cls-1{fill:#fff;}</style></defs><g id="Layer_2-2"><circle class="cls-1" cx="21.39" cy="20.38" r="20.38"/><circle class="cls-1" cx="709.06" cy="20.38" r="20.38"/><circle class="cls-1" cx="491.04" cy="20.38" r="20.38"/><circle class="cls-1" cx="252.65" cy="20.38" r="20.38"/><circle class="cls-1" cx="921.98" cy="20.38" r="20.38"/><circle class="cls-1" cx="1150.18" cy="20.38" r="20.38"/><circle class="cls-1" cx="1381.44" cy="20.38" r="20.38"/><circle class="cls-1" cx="1601.49" cy="20.38" r="20.38"/><circle class="cls-1" cx="1827.66" cy="20.38" r="20.38"/><circle class="cls-1" cx="2048.73" cy="20.38" r="20.38"/><circle class="cls-1" cx="21.39" cy="257.75" r="20.38"/><circle class="cls-1" cx="709.06" cy="257.75" r="20.38"/><circle class="cls-1" cx="491.04" cy="257.75" r="20.38"/><circle class="cls-1" cx="252.65" cy="257.75" r="20.38"/><circle class="cls-1" cx="921.98" cy="257.75" r="20.38"/><circle class="cls-1" cx="1150.18" cy="257.75" r="20.38"/><circle class="cls-1" cx="1381.44" cy="257.75" r="20.38"/><circle class="cls-1" cx="1601.49" cy="257.75" r="20.38"/><circle class="cls-1" cx="1827.66" cy="257.75" r="20.38"/><circle class="cls-1" cx="2048.73" cy="257.75" r="20.38"/><circle class="cls-1" cx="20.38" cy="495.12" r="20.38"/><circle class="cls-1" cx="708.04" cy="495.12" r="20.38"/><circle class="cls-1" cx="490.02" cy="495.12" r="20.38"/><circle class="cls-1" cx="251.63" cy="495.12" r="20.38"/><circle class="cls-1" cx="920.96" cy="495.12" r="20.38"/><circle class="cls-1" cx="1149.16" cy="495.12" r="20.38"/><circle class="cls-1" cx="1380.42" cy="495.12" r="20.38"/><circle class="cls-1" cx="1600.48" cy="495.12" r="20.38"/><circle class="cls-1" cx="1826.64" cy="495.12" r="20.38"/><circle class="cls-1" cx="2047.71" cy="495.12" r="20.38"/><circle class="cls-1" cx="22.41" cy="725.36" r="20.38"/><circle class="cls-1" cx="710.08" cy="725.36" r="20.38"/><circle class="cls-1" cx="492.06" cy="725.36" r="20.38"/><circle class="cls-1" cx="253.67" cy="725.36" r="20.38"/><circle class="cls-1" cx="923" cy="725.36" r="20.38"/><circle class="cls-1" cx="1151.2" cy="725.36" r="20.38"/><circle class="cls-1" cx="1382.46" cy="725.36" r="20.38"/><circle class="cls-1" cx="1602.51" cy="725.36" r="20.38"/><circle class="cls-1" cx="1828.68" cy="725.36" r="20.38"/><circle class="cls-1" cx="2049.75" cy="725.36" r="20.38"/><circle class="cls-1" cx="22.41" cy="952.54" r="20.38"/><circle class="cls-1" cx="710.08" cy="952.54" r="20.38"/><circle class="cls-1" cx="492.06" cy="952.54" r="20.38"/><circle class="cls-1" cx="253.67" cy="952.54" r="20.38"/><circle class="cls-1" cx="923" cy="952.54" r="20.38"/><circle class="cls-1" cx="1151.2" cy="952.54" r="20.38"/><circle class="cls-1" cx="1382.46" cy="952.54" r="20.38"/><circle class="cls-1" cx="1602.51" cy="952.54" r="20.38"/><circle class="cls-1" cx="1828.68" cy="952.54" r="20.38"/><circle class="cls-1" cx="2049.75" cy="952.54" r="20.38"/><circle class="cls-1" cx="22.41" cy="1189.91" r="20.38"/><circle class="cls-1" cx="710.08" cy="1189.91" r="20.38"/><circle class="cls-1" cx="492.06" cy="1189.91" r="20.38"/><circle class="cls-1" cx="253.67" cy="1189.91" r="20.38"/><circle class="cls-1" cx="923" cy="1189.91" r="20.38"/><circle class="cls-1" cx="1151.2" cy="1189.91" r="20.38"/><circle class="cls-1" cx="1382.46" cy="1189.91" r="20.38"/><circle class="cls-1" cx="1602.51" cy="1189.91" r="20.38"/><circle class="cls-1" cx="1828.68" cy="1189.91" r="20.38"/><circle class="cls-1" cx="2049.75" cy="1189.91" r="20.38"/><circle class="cls-1" cx="21.39" cy="1427.29" r="20.38"/><circle class="cls-1" cx="709.06" cy="1427.29" r="20.38"/><circle class="cls-1" cx="491.04" cy="1427.29" r="20.38"/><circle class="cls-1" cx="252.65" cy="1427.29" r="20.38"/><circle class="cls-1" cx="921.98" cy="1427.29" r="20.38"/><circle class="cls-1" cx="1150.18" cy="1427.29" r="20.38"/><circle class="cls-1" cx="1381.44" cy="1427.29" r="20.38"/><circle class="cls-1" cx="1601.49" cy="1427.29" r="20.38"/><circle class="cls-1" cx="1827.66" cy="1427.29" r="20.38"/><circle class="cls-1" cx="2048.73" cy="1427.29" r="20.38"/><circle class="cls-1" cx="22.41" cy="1664.66" r="20.38"/><circle class="cls-1" cx="710.08" cy="1664.66" r="20.38"/><circle class="cls-1" cx="492.06" cy="1664.66" r="20.38"/><circle class="cls-1" cx="253.67" cy="1664.66" r="20.38"/><circle class="cls-1" cx="923" cy="1664.66" r="20.38"/><circle class="cls-1" cx="1151.2" cy="1664.66" r="20.38"/><circle class="cls-1" cx="1382.46" cy="1664.66" r="20.38"/><circle class="cls-1" cx="1602.51" cy="1664.66" r="20.38"/><circle class="cls-1" cx="1828.68" cy="1664.66" r="20.38"/><circle class="cls-1" cx="2049.75" cy="1664.66" r="20.38"/><circle class="cls-1" cx="22.41" cy="1891.84" r="20.38"/><circle class="cls-1" cx="710.08" cy="1891.84" r="20.38"/><circle class="cls-1" cx="492.06" cy="1891.84" r="20.38"/><circle class="cls-1" cx="253.67" cy="1891.84" r="20.38"/><circle class="cls-1" cx="923" cy="1891.84" r="20.38"/><circle class="cls-1" cx="1151.2" cy="1891.84" r="20.38"/><circle class="cls-1" cx="1382.46" cy="1891.84" r="20.38"/><circle class="cls-1" cx="1602.51" cy="1891.84" r="20.38"/><circle class="cls-1" cx="1828.68" cy="1891.84" r="20.38"/><circle class="cls-1" cx="2049.75" cy="1891.84" r="20.38"/><circle class="cls-1" cx="22.41" cy="2129.21" r="20.38"/><circle class="cls-1" cx="710.08" cy="2129.21" r="20.38"/><circle class="cls-1" cx="492.06" cy="2129.21" r="20.38"/><circle class="cls-1" cx="253.67" cy="2129.21" r="20.38"/><circle class="cls-1" cx="923" cy="2129.21" r="20.38"/><circle class="cls-1" cx="1151.2" cy="2129.21" r="20.38"/><circle class="cls-1" cx="1382.46" cy="2129.21" r="20.38"/><circle class="cls-1" cx="1602.51" cy="2129.21" r="20.38"/><circle class="cls-1" cx="1828.68" cy="2129.21" r="20.38"/><circle class="cls-1" cx="2049.75" cy="2129.21" r="20.38"/><circle class="cls-1" cx="21.39" cy="2366.59" r="20.38"/><circle class="cls-1" cx="709.06" cy="2366.59" r="20.38"/><circle class="cls-1" cx="491.04" cy="2366.59" r="20.38"/><circle class="cls-1" cx="252.65" cy="2366.59" r="20.38"/><circle class="cls-1" cx="921.98" cy="2366.59" r="20.38"/><circle class="cls-1" cx="1150.18" cy="2366.59" r="20.38"/><circle class="cls-1" cx="1381.44" cy="2366.59" r="20.38"/><circle class="cls-1" cx="1601.49" cy="2366.59" r="20.38"/><circle class="cls-1" cx="1827.66" cy="2366.59" r="20.38"/><circle class="cls-1" cx="2048.73" cy="2366.59" r="20.38"/><circle class="cls-1" cx="29.54" cy="2603.96" r="20.38"/><circle class="cls-1" cx="717.21" cy="2603.96" r="20.38"/><circle class="cls-1" cx="499.19" cy="2603.96" r="20.38"/><circle class="cls-1" cx="260.8" cy="2603.96" r="20.38"/><circle class="cls-1" cx="930.13" cy="2603.96" r="20.38"/><circle class="cls-1" cx="1158.33" cy="2603.96" r="20.38"/><circle class="cls-1" cx="1389.59" cy="2603.96" r="20.38"/><circle class="cls-1" cx="1609.65" cy="2603.96" r="20.38"/><circle class="cls-1" cx="1835.81" cy="2603.96" r="20.38"/><circle class="cls-1" cx="2056.88" cy="2603.96" r="20.38"/><circle class="cls-1" cx="29.54" cy="2831.14" r="20.38"/><circle class="cls-1" cx="717.21" cy="2831.14" r="20.38"/><circle class="cls-1" cx="499.19" cy="2831.14" r="20.38"/><circle class="cls-1" cx="260.8" cy="2831.14" r="20.38"/><circle class="cls-1" cx="930.13" cy="2831.14" r="20.38"/><circle class="cls-1" cx="1158.33" cy="2831.14" r="20.38"/><circle class="cls-1" cx="1389.59" cy="2831.14" r="20.38"/><circle class="cls-1" cx="1609.65" cy="2831.14" r="20.38"/><circle class="cls-1" cx="1835.81" cy="2831.14" r="20.38"/><circle class="cls-1" cx="2056.88" cy="2831.14" r="20.38"/><circle class="cls-1" cx="29.54" cy="3068.51" r="20.38"/><circle class="cls-1" cx="717.21" cy="3068.51" r="20.38"/><circle class="cls-1" cx="499.19" cy="3068.51" r="20.38"/><circle class="cls-1" cx="260.8" cy="3068.51" r="20.38"/><circle class="cls-1" cx="930.13" cy="3068.51" r="20.38"/><circle class="cls-1" cx="1158.33" cy="3068.51" r="20.38"/><circle class="cls-1" cx="1389.59" cy="3068.51" r="20.38"/><circle class="cls-1" cx="1609.65" cy="3068.51" r="20.38"/><circle class="cls-1" cx="1835.81" cy="3068.51" r="20.38"/><circle class="cls-1" cx="2056.88" cy="3068.51" r="20.38"/><circle class="cls-1" cx="28.53" cy="3305.88" r="20.38"/><circle class="cls-1" cx="716.19" cy="3305.88" r="20.38"/><circle class="cls-1" cx="498.17" cy="3305.88" r="20.38"/><circle class="cls-1" cx="259.78" cy="3305.88" r="20.38"/><circle class="cls-1" cx="929.11" cy="3305.88" r="20.38"/><circle class="cls-1" cx="1157.31" cy="3305.88" r="20.38"/><circle class="cls-1" cx="1388.57" cy="3305.88" r="20.38"/><circle class="cls-1" cx="1608.63" cy="3305.88" r="20.38"/><circle class="cls-1" cx="1834.79" cy="3305.88" r="20.38"/><circle class="cls-1" cx="2055.86" cy="3305.88" r="20.38"/><circle class="cls-1" cx="33.62" cy="3543.26" r="20.38"/><circle class="cls-1" cx="721.28" cy="3543.26" r="20.38"/><circle class="cls-1" cx="503.27" cy="3543.26" r="20.38"/><circle class="cls-1" cx="264.88" cy="3543.26" r="20.38"/><circle class="cls-1" cx="934.21" cy="3543.26" r="20.38"/><circle class="cls-1" cx="1162.41" cy="3543.26" r="20.38"/><circle class="cls-1" cx="1393.67" cy="3543.26" r="20.38"/><circle class="cls-1" cx="1613.72" cy="3543.26" r="20.38"/><circle class="cls-1" cx="1839.89" cy="3543.26" r="20.38"/><circle class="cls-1" cx="2060.96" cy="3543.26" r="20.38"/><circle class="cls-1" cx="33.62" cy="3770.44" r="20.38"/><circle class="cls-1" cx="721.28" cy="3770.44" r="20.38"/><circle class="cls-1" cx="503.27" cy="3770.44" r="20.38"/><circle class="cls-1" cx="264.88" cy="3770.44" r="20.38"/><circle class="cls-1" cx="934.21" cy="3770.44" r="20.38"/><circle class="cls-1" cx="1162.41" cy="3770.44" r="20.38"/><circle class="cls-1" cx="1393.67" cy="3770.44" r="20.38"/><circle class="cls-1" cx="1613.72" cy="3770.44" r="20.38"/><circle class="cls-1" cx="1839.89" cy="3770.44" r="20.38"/><circle class="cls-1" cx="2060.96" cy="3770.44" r="20.38"/></g></svg>